<?xml version="1.0" encoding="UTF-8"?>
<svg width="50px" height="43px" viewBox="0 0 50 43" version="1.1" xmlns="http://www.w3.org/2000/svg" xmlns:xlink="http://www.w3.org/1999/xlink">
    <!-- Generator: Sketch 41.2 (35397) - http://www.bohemiancoding.com/sketch -->
    <title>shared-folder</title>
    <desc>Created with Sketch.</desc>
    <defs>
        <polygon id="path-1" points="0 7.39611175e-15 2.7138978e-18 42.0475672 49.0117856 42.0475672 49.0117856 0 2.7138978e-18 0"></polygon>
    </defs>
    <g id="Page-1" stroke="none" stroke-width="1" fill="none" fill-rule="evenodd">
        <g id="start-quiz" transform="translate(-936.000000, -356.000000)">
            <g id="assigned" transform="translate(775.000000, 326.000000)">
                <g id="shared-folder" transform="translate(161.000000, 30.000000)">
                    <g id="Group-3">
                        <mask id="mask-2" fill="white">
                            <use xlink:href="#path-1"></use>
                        </mask>
                        <g id="Clip-2"></g>
                        <path d="M44.8477263,3.38295812 L27.6387151,3.38295812 C27.2069253,3.38295812 26.8564873,3.73270395 26.8564873,4.16364076 C26.8564873,4.5947077 27.2069253,4.94432341 27.6387151,4.94432341 L44.8477263,4.94432341 C46.2853306,4.94432341 47.4551523,6.1118343 47.4551523,7.54659889 L47.4551523,8.46351065 C46.7401961,7.89074982 45.8335941,7.54659889 44.8477263,7.54659889 L25.2920317,7.54659889 L25.2920317,4.16364076 C25.2920317,1.86791334 23.4205517,0 21.1201502,0 L4.17188152,0 C1.87147997,0 0,1.86791334 0,4.16364076 L0,41.2668845 C0,41.6984719 0.350438048,42.0475672 0.782227785,42.0475672 L48.2373801,42.0475672 C48.6691698,42.0475672 49.0196078,41.6984719 49.0196078,41.2668845 L49.0196078,7.54659889 C49.0196078,5.25087146 47.1481279,3.38295812 44.8477263,3.38295812 Z M47.4551523,40.4862019 L1.56445557,40.4862019 L1.56445557,4.16364076 C1.56445557,2.72887618 2.73427722,1.56136529 4.17188152,1.56136529 L21.1201502,1.56136529 C22.5577545,1.56136529 23.7275761,2.72887618 23.7275761,4.16364076 L23.7275761,8.32728153 C23.7275761,8.75834846 24.0780142,9.10796417 24.5098039,9.10796417 L44.8477263,9.10796417 C46.2853306,9.10796417 47.4551523,10.2754751 47.4551523,11.7102397 L47.4551523,40.4862019 Z" id="Fill-1" fill="#63ADF2" mask="url(#mask-2)"></path>
                    </g>
                    <path d="M34.912573,23.81086 C37.0703484,23.81086 38.8257979,22.058878 38.8257979,19.9053649 C38.8257979,17.7518519 37.0703484,16 34.912573,16 C32.754928,16 31,17.7518519 31,19.9053649 C31,22.058878 32.754928,23.81086 34.912573,23.81086 Z M34.912573,17.5613653 C36.2076815,17.5613653 37.2613423,18.6129448 37.2613423,19.9053649 C37.2613423,21.1979152 36.2076815,22.2494947 34.912573,22.2494947 C33.6175949,22.2494947 32.5644556,21.1979152 32.5644556,19.9053649 C32.5644556,18.6129448 33.6175949,17.5613653 34.912573,17.5613653 Z" id="Fill-4" fill="#63ADF2"></path>
                    <path d="M35.4577296,25 C34.3959858,25 33.3433679,25.2632202 32.4123865,25.7612957 C32.031963,25.9646635 31.8888153,26.4378873 32.0931072,26.8180798 C32.2972686,27.1976216 32.7709075,27.341007 33.1518525,27.1372489 C33.8555967,26.7605695 34.6532083,26.5613653 35.4577296,26.5613653 C37.8895454,26.5613653 39.9122561,28.3408013 40.2881165,30.6629418 L35.4577296,30.6629418 C35.0259399,30.6629418 34.6755018,31.0126876 34.6755018,31.4436244 C34.6755018,31.8752118 35.0259399,32.2243071 35.4577296,32.2243071 L41.1325314,32.2243071 C41.5643212,32.2243071 41.9147592,31.8752118 41.9147592,31.4436244 C41.9147592,27.8909979 39.0180394,25 35.4577296,25 Z" id="Fill-5" fill="#63ADF2"></path>
                    <path d="M13.5262568,30.6629418 L8.62716416,30.6629418 C9.00250313,28.3408013 11.0252138,26.5613653 13.4570296,26.5613653 C14.2615509,26.5613653 15.058641,26.760049 15.7623853,27.1367284 C16.1433302,27.341007 16.6174906,27.1976216 16.8216521,26.8175593 C17.0259439,26.4378873 16.8822747,25.9646635 16.5018513,25.7609053 C15.5713913,25.2632202 14.5187735,25 13.4570296,25 C9.89671986,25 7,27.8904775 7,31.4436244 C7,31.8752118 7.35043805,32.2243071 7.78222778,32.2243071 L13.5262568,32.2243071 C13.958568,32.2243071 14.3084846,31.8752118 14.3084846,31.4436244 C14.3084846,31.0126876 13.958568,30.6629418 13.5262568,30.6629418 Z" id="Fill-6" fill="#63ADF2"></path>
                    <path d="M13.9132249,23.81086 C16.0708698,23.81086 17.8257979,22.058878 17.8257979,19.9053649 C17.8257979,17.7518519 16.0708698,16 13.9132249,16 C11.7554495,16 10,17.7518519 10,19.9053649 C10,22.058878 11.7554495,23.81086 13.9132249,23.81086 Z M13.9132249,17.5613653 C15.208203,17.5613653 16.2613423,18.6129448 16.2613423,19.9053649 C16.2613423,21.1979152 15.208203,22.2494947 13.9132249,22.2494947 C12.6181164,22.2494947 11.5644556,21.1979152 11.5644556,19.9053649 C11.5644556,18.6129448 12.6181164,17.5613653 13.9132249,17.5613653 Z" id="Fill-7" fill="#63ADF2"></path>
                    <path d="M25.0381988,24.0563635 C27.8162808,24.0563635 30.0763976,21.8007111 30.0763976,19.0281167 C30.0763976,16.2556524 27.8162808,14 25.0381988,14 C22.2601168,14 20,16.2556524 20,19.0281167 C20,21.8007111 22.2601168,24.0563635 25.0381988,24.0563635 Z M25.0381988,15.5613653 C26.9534835,15.5613653 28.511942,17.1166152 28.511942,19.0281167 C28.511942,20.9402687 26.9534835,22.4949982 25.0381988,22.4949982 C23.1229141,22.4949982 21.5644556,20.9402687 21.5644556,19.0281167 C21.5644556,17.1166152 23.1229141,15.5613653 25.0381988,15.5613653 Z" id="Fill-8" fill="#63ADF2"></path>
                    <path d="M24.4960367,26 C19.8112745,26 16,29.8037461 16,34.4792544 C16,34.9107117 16.350438,35.2599371 16.7822278,35.2599371 L32.2098456,35.2599371 C32.6421569,35.2599371 32.9920734,34.9107117 32.9920734,34.4792544 C32.9920734,29.8037461 29.1807989,26 24.4960367,26 Z M17.6082603,33.6985718 C17.9978098,30.2500363 20.9383344,27.5613653 24.4960367,27.5613653 C28.053739,27.5613653 30.9942637,30.2500363 31.3838131,33.6985718 L17.6082603,33.6985718 Z" id="Fill-9" fill="#63ADF2"></path>
                </g>
            </g>
        </g>
    </g>
</svg>