<?xml version="1.0" encoding="UTF-8"?>
<svg width="36px" height="35px" viewBox="0 0 36 35" version="1.1" xmlns="http://www.w3.org/2000/svg" xmlns:xlink="http://www.w3.org/1999/xlink">
    <!-- Generator: Sketch 41.2 (35397) - http://www.bohemiancoding.com/sketch -->
    <title>number</title>
    <desc>Created with Sketch.</desc>
    <defs></defs>
    <g id="Page-1" stroke="none" stroke-width="1" fill="none" fill-rule="evenodd">
        <g id="play-quiz-wrong-answer" transform="translate(-975.000000, -618.000000)">
            <g id="Group-2-Copy-2" transform="translate(975.000000, 617.000000)">
                <g id="number">
                    <g id="cross">
                        <circle id="Oval-2" fill="#FFFFFF" cx="18" cy="18" r="16"></circle>
                        <path d="M30.4283571,6.27927907 C23.4777857,-0.510488372 12.1635,-0.510488372 5.21292857,6.27927907 C-1.73764286,13.0682093 -1.73764286,24.115186 5.21292857,30.9083023 C12.1635,37.6972326 23.4743571,37.6972326 30.4283571,30.9083023 C37.3789286,24.115186 37.3789286,13.0682093 30.4283571,6.27927907 Z M24.8500714,25.4597442 C24.3143571,25.983 23.4469286,25.983 22.9112143,25.4597442 L17.8189286,20.4883953 L12.4849286,25.695 C11.9492143,26.2182558 11.0826429,26.2182558 10.5469286,25.695 C10.0112143,25.175093 10.0112143,24.3244884 10.5469286,23.8012326 L15.8800714,18.5921163 L10.7912143,13.6207674 C10.2555,13.0975116 10.2555,12.2477442 10.7912143,11.7278372 C11.3269286,11.2045814 12.1943571,11.2045814 12.7300714,11.7278372 L17.8189286,16.6983488 L22.6703571,11.963093 C23.2026429,11.4398372 24.0735,11.4398372 24.6092143,11.963093 C25.1449286,12.4863488 25.1449286,13.3336047 24.6092143,13.8568605 L19.7612143,18.5921163 L24.8500714,23.5659767 C25.3857857,24.0892326 25.3857857,24.9364884 24.8500714,25.4597442 Z" id="error" fill="#FE5D76"></path>
                    </g>
                </g>
            </g>
        </g>
    </g>
</svg>