<?xml version="1.0" encoding="UTF-8"?>
<svg width="22px" height="22px" viewBox="0 0 22 22" version="1.1" xmlns="http://www.w3.org/2000/svg" xmlns:xlink="http://www.w3.org/1999/xlink">
    <!-- Generator: Sketch 41.2 (35397) - http://www.bohemiancoding.com/sketch -->
    <title>close</title>
    <desc>Created with Sketch.</desc>
    <defs>
        <polygon id="path-1" points="10.9969703 0.0116962025 0.00559322034 0.0116962025 0.00559322034 21.9072658 21.9883475 21.9072658 21.9883475 0.0116962025"></polygon>
    </defs>
    <g id="Page-1" stroke="none" stroke-width="1" fill="none" fill-rule="evenodd">
        <g id="empty-state-for-no-image" transform="translate(-422.000000, -107.000000)">
            <g id="close-btn" transform="translate(375.000000, 90.000000)">
                <g id="close" transform="translate(47.000000, 17.000000)">
                    <g id="Group-3">
                        <mask id="mask-2" fill="white">
                            <use xlink:href="#path-1"></use>
                        </mask>
                        <g id="Clip-2"></g>
                        <path d="M10.9942203,0.0116962025 C4.93191525,0.0116962025 0,4.92289451 0,10.9595274 C0,16.9961603 4.93191525,21.9072658 10.9942203,21.9072658 C13.8493729,21.9072658 16.555,20.8223966 18.6127458,18.8523291 C18.7907966,18.6818987 18.7966695,18.3997975 18.6251441,18.2224979 C18.4539915,18.0451983 18.1706949,18.0393502 17.9926441,18.2097806 C16.102322,20.0195359 13.6170678,21.0160338 10.9942203,21.0160338 C5.42533051,21.0160338 0.895101695,16.504827 0.895101695,10.9595274 C0.895101695,5.41422785 5.42533051,0.903021097 10.9942203,0.903021097 C16.5626441,0.903021097 21.0932458,5.41422785 21.0932458,10.9595274 C21.0932458,12.2101857 20.8656949,13.4303038 20.4167458,14.5859072 C20.3278136,14.8154684 20.4421949,15.0736203 20.6727288,15.1624557 C20.9031695,15.2509198 21.1625085,15.1371139 21.2517203,14.9075527 C21.7403814,13.6490042 21.9883475,12.3203713 21.9883475,10.9595274 C21.9883475,4.92289451 17.0564322,0.0116962025 10.9942203,0.0116962025 Z" id="Fill-1" fill="#63adf2" mask="url(#mask-2)"></path>
                    </g>
                    <path d="M12.5002881,11.9033924 C12.3236356,11.7314768 12.040339,11.7344473 11.8677881,11.9102616 C11.6947712,12.0861688 11.697661,12.36827 11.8743136,12.5404641 L15.3970169,15.9739494 C15.4840847,16.0587932 15.5968814,16.1009367 15.7101441,16.1009367 C15.8260169,16.1009367 15.9421695,16.0562869 16.0298898,15.9670802 C16.2025339,15.7912658 16.1995508,15.5091646 16.0229915,15.3368776 L12.5002881,11.9033924 Z" id="Fill-4" fill="#63adf2"></path>
                    <path d="M9.33517797,9.93768776 C9.42252542,10.0247595 9.53727966,10.0682025 9.6515678,10.0682025 C9.76632203,10.0682025 9.88061017,10.0247595 9.96805085,9.93768776 C10.142839,9.76363713 10.142839,9.48153586 9.96805085,9.30748523 L6.59459322,5.94835443 C6.41980508,5.7743038 6.13650847,5.7743038 5.96172034,5.94835443 C5.7869322,6.12240506 5.7869322,6.40450633 5.96172034,6.57855696 L9.33517797,9.93768776 Z" id="Fill-5" fill="#63adf2"></path>
                    <path d="M16.0266271,5.94835443 C15.851839,5.7743038 15.5681695,5.7743038 15.3937542,5.94835443 L5.96172034,15.3404979 C5.7869322,15.5145485 5.7869322,15.7966498 5.96172034,15.9707004 C6.04916102,16.0574008 6.16382203,16.1009367 6.27820339,16.1009367 C6.39286441,16.1009367 6.50724576,16.0574008 6.59459322,15.9707004 L16.0266271,6.57855696 C16.2010424,6.40450633 16.2010424,6.12240506 16.0266271,5.94835443 Z" id="Fill-6" fill="#63adf2"></path>
                </g>
            </g>
        </g>
    </g>
</svg>