<?xml version="1.0" encoding="UTF-8"?>
<svg width="21px" height="27px" viewBox="0 0 21 27" version="1.1" xmlns="http://www.w3.org/2000/svg" xmlns:xlink="http://www.w3.org/1999/xlink">
    <!-- Generator: Sketch 41.2 (35397) - http://www.bohemiancoding.com/sketch -->
    <title>copy</title>
    <desc>Created with Sketch.</desc>
    <defs></defs>
    <g id="Page-1" stroke="none" stroke-width="1" fill="none" fill-rule="evenodd">
        <g id="my-quizes" transform="translate(-1404.000000, -282.000000)" fill="#63adf2">
            <g id="1" transform="translate(375.000000, 259.000000)">
                <g id="copy" transform="translate(1012.000000, 9.000000)">
                    <g transform="translate(17.550000, 14.850000)">
                        <path d="M13.7467093,4.44335463 L1.99776278,4.44335463 C0.895399361,4.44335463 0,5.33875399 0,6.44111741 L0,23.2986278 C0,24.4009912 0.895399361,25.2963906 1.99776278,25.2963906 L13.7467093,25.2963906 C14.8491374,25.2963906 15.744472,24.4009912 15.744472,23.2986278 L15.744472,6.44111741 C15.7394257,5.33875399 14.8440264,4.44335463 13.7467093,4.44335463 Z M14.3419169,23.2933227 C14.3419169,23.6246334 14.0727796,23.8937708 13.7414042,23.8937708 L1.99271645,23.8937708 C1.66140575,23.8937708 1.39226837,23.6246334 1.39226837,23.2933227 L1.39226837,6.44111741 C1.39226837,6.10980671 1.66140575,5.84092812 1.99271645,5.84092812 L13.7414042,5.84092812 C14.0727796,5.84092812 14.3419169,6.10980671 14.3419169,6.44111741 L14.3419169,23.2933227 Z" id="Fill-1"></path>
                        <path d="M18.2393626,0.0232907348 L6.49035144,0.0232907348 C5.38798802,0.0232907348 4.49258866,0.918690096 4.49258866,2.02105351 C4.49258866,2.40923243 4.8029377,2.71984026 5.19111661,2.71984026 C5.57929553,2.71984026 5.88990335,2.40923243 5.88990335,2.02105351 C5.88990335,1.6900016 6.15904073,1.42086422 6.49035144,1.42086422 L18.2393626,1.42086422 C18.5704145,1.42086422 18.8395519,1.6900016 18.8395519,2.02105351 L18.8395519,18.8784992 C18.8395519,19.2096158 18.5704145,19.4787532 18.2393626,19.4787532 C17.8511837,19.4787532 17.5405759,19.789361 17.5405759,20.1775399 C17.5405759,20.5657188 17.8511837,20.876262 18.2393626,20.876262 C19.341726,20.876262 20.2371254,19.9808626 20.2371254,18.8784992 L20.2371254,2.02105351 C20.2371254,0.918690096 19.341726,0.0232907348 18.2393626,0.0232907348 Z" id="Fill-2"></path>
                    </g>
                </g>
            </g>
        </g>
    </g>
</svg>