<?xml version="1.0" encoding="UTF-8"?>
<svg width="22px" height="29px" viewBox="0 0 22 29" version="1.1" xmlns="http://www.w3.org/2000/svg" xmlns:xlink="http://www.w3.org/1999/xlink">
    <!-- Generator: Sketch 41.2 (35397) - http://www.bohemiancoding.com/sketch -->
    <title>delete</title>
    <desc>Created with Sketch.</desc>
    <defs></defs>
    <g id="Page-1" stroke="none" stroke-width="1" fill="none" fill-rule="evenodd">
        <g id="create-question-surway-with-secial-symbols" transform="translate(-1153.000000, -473.000000)" fill="#AAB9C1">
            <g id="cover-img" transform="translate(1117.000000, 226.000000)">
                <g id="delete" transform="translate(20.000000, 234.000000)">
                    <g transform="translate(16.200000, 13.500000)">
                        <path d="M17.4874227,28.1927782 L3.79492093,28.1927782 C3.37483366,28.1927782 3.02347366,27.8734255 2.98361184,27.4551055 L1.4537529,11.0796873 C1.43202199,10.85112 3.06111002,11.0796873 3.06111002,11.0796873 L4.53586638,26.5627636 L16.7464773,26.5627636 L17.7909355,15.5986036 C17.83335,15.1504364 18.2311827,14.8215927 18.6794155,14.8645964 C19.1273864,14.9072727 19.4559027,15.3051055 19.4132264,15.7530764 L18.2987318,27.4551055 C18.2588046,27.8734255 17.90751,28.1927782 17.4874227,28.1927782 Z" id="Fill-1"></path>
                        <path d="M20.76696,11.4612218 L0.814843636,11.4612218 C0.364843636,11.4612218 0,11.0963127 0,10.6461164 L0,6.21484364 C0,5.76484364 0.364843636,5.4 0.814843636,5.4 L20.76696,5.4 C21.21696,5.4 21.5818691,5.76458182 21.5818691,6.21484364 L21.5818691,10.6461164 C21.5818691,11.0961164 21.21696,11.4612218 20.76696,11.4612218 Z M1.62994909,9.83120727 L19.9521164,9.83120727 L19.9521164,7.02975273 L1.62994909,7.02975273 L1.62994909,9.83120727 Z" id="Fill-3"></path>
                        <path d="M14.7024655,3.36717818 C14.2524655,3.36717818 13.8876218,3.00233455 13.8876218,2.55207273 L13.8876218,1.65586909 L7.69424727,1.65586909 L7.69424727,2.55233455 C7.69424727,3.00233455 7.32940364,3.36717818 6.87940364,3.36717818 C6.42940364,3.36717818 6.06449455,3.00233455 6.06449455,2.55233455 L6.06449455,0.841025455 C6.06449455,0.391025455 6.42940364,0.0261818182 6.87940364,0.0261818182 L14.7024655,0.0261818182 C15.1524655,0.0261818182 15.5175709,0.391025455 15.5175709,0.841025455 L15.5175709,2.55233455 C15.5175709,3.00233455 15.1527273,3.36717818 14.7024655,3.36717818 Z" id="Fill-4"></path>
                    </g>
                </g>
            </g>
        </g>
    </g>
</svg>