<?xml version="1.0" encoding="UTF-8"?>
<svg width="106px" height="82px" viewBox="0 0 106 82" version="1.1" xmlns="http://www.w3.org/2000/svg" xmlns:xlink="http://www.w3.org/1999/xlink">
    <!-- Generator: Sketch 41.2 (35397) - http://www.bohemiancoding.com/sketch -->
    <title>drag&amp;drop img</title>
    <desc>Created with Sketch.</desc>
    <defs>
        <polygon id="path-1" points="26.9295254 0.0181311475 0.0137288136 0.0181311475 0.0137288136 41.7707213 53.845322 41.7707213 53.845322 0.0181311475 26.9295254 0.0181311475"></polygon>
    </defs>
    <g id="Page-1" stroke="none" stroke-width="1" fill="none" fill-rule="evenodd">
        <g id="create-quiz_surway" transform="translate(-1253.000000, -299.000000)">
            <g id="cover-img" transform="translate(1117.000000, 226.000000)">
                <g id="desc" transform="translate(48.000000, 72.000000)">
                    <g id="drag&amp;drop-img" transform="translate(88.000000, 0.000000)">
                        <g id="png" transform="translate(16.617009, 29.617009) rotate(-45.000000) translate(-16.617009, -29.617009) translate(6.617009, 16.117009)" fill="#AAB9C1">
                            <path d="M19.755,5.75 L14.5833333,0.578333333 C14.4294444,0.422222222 14.2144444,0.333333333 13.9933333,0.333333333 L1.09388889,0.333333333 C0.568333333,0.333333333 -7.10542736e-14,0.741111111 -7.10542736e-14,1.63333333 L-7.10542736e-14,25.2227778 C-7.10542736e-14,25.5938889 0.373333333,25.9561111 0.816111111,26.0711111 C0.84,26.0777778 0.859444444,26.0861111 0.883333333,26.0905556 C0.952777778,26.1038889 1.02444444,26.11 1.09388889,26.11 L18.9061111,26.11 C18.9755556,26.11 19.0472222,26.1038889 19.1166667,26.0905556 C19.1405556,26.0861111 19.16,26.0777778 19.1838889,26.0711111 C19.6266667,25.9561111 20,25.5938889 20,25.2227778 L20,6.54666667 C20,6.20555556 19.9588889,5.95388889 19.755,5.75 Z M18.4155556,5.66777778 L14.6655556,5.66777778 L14.6655556,1.91777778 L18.4155556,5.66777778 Z M2.22222222,1.22333333 C2.22222222,1.46833333 2.42166667,1.66555556 2.66722222,1.66555556 C2.91222222,1.66555556 3.11222222,1.46833333 3.11222222,1.22333333 L3.99944444,1.22333333 C3.99944444,1.46833333 4.19944444,1.66555556 4.44444444,1.66555556 C4.68944444,1.66555556 4.88944444,1.46833333 4.88944444,1.22333333 L5.77666667,1.22333333 C5.77666667,1.46833333 5.97666667,1.66555556 6.22166667,1.66555556 C6.46722222,1.66555556 6.66666667,1.46833333 6.66666667,1.22333333 L7.55666667,1.22333333 C7.55666667,1.46833333 7.75388889,1.66555556 7.99888889,1.66555556 C8.24444444,1.66555556 8.44388889,1.46833333 8.44388889,1.22333333 L9.33388889,1.22333333 C9.33388889,1.46833333 9.53333333,1.66555556 9.77888889,1.66555556 C10.0238889,1.66555556 10.2211111,1.46833333 10.2211111,1.22333333 L11.1111111,1.22333333 C11.1111111,1.46833333 11.3105556,1.66555556 11.5561111,1.66555556 C11.8011111,1.66555556 12.0011111,1.46833333 12.0011111,1.22333333 L12.8883333,1.22333333 C12.8883333,1.46833333 13.0883333,1.66555556 13.3333333,1.66555556 C13.5783333,1.66555556 13.7783333,1.46833333 13.7783333,1.22333333 L13.8044444,1.22333333 C13.7888889,1.27722222 13.7783333,1.33611111 13.7783333,1.39666667 L13.7783333,6.555 L14.6655556,6.555 C14.6655556,6.80055556 14.8655556,7 15.1105556,7 C15.3561111,7 15.5555556,6.80055556 15.5555556,6.555 L16.4455556,6.555 C16.4455556,6.80055556 16.6427778,7 16.8877778,7 C17.1333333,7 17.3327778,6.80055556 17.3327778,6.555 L18.2227778,6.555 C18.2227778,6.80055556 18.4222222,7 18.6677778,7 C18.9127778,7 19.11,6.80055556 19.11,6.555 C19.11,6.54666667 19.1061111,6.54 19.1061111,6.53111111 C19.1083333,6.52888889 19.11,6.52888889 19.11,6.52888889 L19.11,6.54444444 L19.11,12.1866667 L19.0388889,12.1172222 C19.08,12.05 19.11,11.9738889 19.11,11.8894444 C19.11,11.6438889 18.9127778,11.4444444 18.6677778,11.4444444 C18.5722222,11.4444444 18.4916667,11.4788889 18.42,11.5288889 L18.1316667,11.2555556 C18.1833333,11.1816667 18.2227778,11.0972222 18.2227778,10.9994444 C18.2227778,10.7544444 18.0227778,10.5544444 17.7777778,10.5544444 C17.6716667,10.5544444 17.5783333,10.5983333 17.5022222,10.6588889 L17.2244444,10.3938889 C17.2894444,10.3161111 17.3327778,10.2205556 17.3327778,10.1122222 C17.3327778,9.86666667 17.1333333,9.66722222 16.8877778,9.66722222 C16.7711111,9.66722222 16.6666667,9.715 16.5861111,9.78888889 L16.3172222,9.53277778 C16.3955556,9.45222222 16.4455556,9.34388889 16.4455556,9.22222222 C16.4455556,8.97722222 16.2455556,8.77722222 16.0005556,8.77722222 C15.87,8.77722222 15.7572222,8.83611111 15.675,8.92277778 L15.4166667,8.67777778 C15.4122222,8.67333333 15.4038889,8.67111111 15.3994444,8.66666667 C15.4927778,8.58444444 15.5555556,8.46722222 15.5555556,8.33222222 C15.5555556,8.08722222 15.3561111,7.89 15.1105556,7.89 C14.8655556,7.89 14.6655556,8.08722222 14.6655556,8.33222222 C14.6655556,8.46944444 14.7311111,8.58611111 14.8266667,8.66888889 C14.8133333,8.67944444 14.7961111,8.68611111 14.7827778,8.70111111 L14.5616667,8.94444444 C14.4788889,8.84444444 14.36,8.77722222 14.2233333,8.77722222 C13.9777778,8.77722222 13.7783333,8.97722222 13.7783333,9.22222222 C13.7783333,9.37388889 13.8583333,9.50222222 13.9777778,9.58222222 L13.7044444,9.88166667 C13.6261111,9.75611111 13.4938889,9.66722222 13.3333333,9.66722222 C13.0883333,9.66722222 12.8883333,9.86666667 12.8883333,10.1122222 C12.8883333,10.2833333 12.9905556,10.4311111 13.1361111,10.505 L12.8494444,10.8194444 C12.78,10.6655556 12.6261111,10.5544444 12.4433333,10.5544444 C12.1983333,10.5544444 12.0011111,10.7544444 12.0011111,10.9994444 C12.0011111,11.195 12.1288889,11.3555556 12.3027778,11.4161111 L11.9772222,11.7744444 C11.925,11.5855556 11.76,11.4444444 11.5561111,11.4444444 C11.3105556,11.4444444 11.1111111,11.6438889 11.1111111,11.8894444 C11.1111111,12.1083333 11.2716667,12.28 11.48,12.3188889 L11.1022222,12.7311111 C11.0783333,12.51 10.8961111,12.3344444 10.6661111,12.3344444 C10.4211111,12.3344444 10.2211111,12.5316667 10.2211111,12.7766667 C10.2211111,13.02 10.4166667,13.215 10.6555556,13.2194444 L10.4294444,13.4672222 L8.32222222,11.36 C8.15777778,11.1972222 7.895,11.1861111 7.71944444,11.3361111 L4.87,13.76 C4.87611111,13.7294444 4.88944444,13.6994444 4.88944444,13.6666667 C4.88944444,13.4216667 4.68944444,13.2216667 4.44444444,13.2216667 C4.19944444,13.2216667 3.99944444,13.4216667 3.99944444,13.6666667 C3.99944444,13.9116667 4.19944444,14.1116667 4.44444444,14.1116667 C4.45111111,14.1116667 4.45722222,14.1072222 4.46388889,14.1072222 L3.99111111,14.5088889 C3.96722222,14.2872222 3.78444444,14.1116667 3.55444444,14.1116667 C3.30944444,14.1116667 3.11222222,14.3111111 3.11222222,14.5566667 C3.11222222,14.7605556 3.25277778,14.9255556 3.44166667,14.9772222 L3.07944444,15.2855556 C3.01444444,15.1183333 2.85611111,14.9988889 2.66722222,14.9988889 C2.42166667,14.9988889 2.22222222,15.1988889 2.22222222,15.4438889 C2.22222222,15.6088889 2.31555556,15.7455556 2.44777778,15.8216667 L2.13777778,16.0861111 C2.05722222,15.9694444 1.92944444,15.8888889 1.77722222,15.8888889 C1.53222222,15.8888889 1.33222222,16.0883333 1.33222222,16.3338889 C1.33222222,16.4594444 1.38666667,16.5722222 1.47111111,16.6527778 L0.89,17.15 L0.89,15.8888889 C1.135,15.8888889 1.33222222,15.6894444 1.33222222,15.4438889 C1.33222222,15.1988889 1.135,14.9988889 0.89,14.9988889 L0.89,14.1116667 C1.135,14.1116667 1.33222222,13.9116667 1.33222222,13.6666667 C1.33222222,13.4216667 1.135,13.2216667 0.89,13.2216667 L0.89,12.3344444 C1.135,12.3344444 1.33222222,12.1344444 1.33222222,11.8894444 C1.33222222,11.6438889 1.135,11.4444444 0.89,11.4444444 L0.89,10.5544444 C1.135,10.5544444 1.33222222,10.3572222 1.33222222,10.1122222 C1.33222222,9.86666667 1.135,9.66722222 0.89,9.66722222 L0.89,8.77722222 C1.135,8.77722222 1.33222222,8.57777778 1.33222222,8.33222222 C1.33222222,8.08722222 1.135,7.89 0.89,7.89 L0.89,7 C1.135,7 1.33222222,6.80055556 1.33222222,6.555 C1.33222222,6.31 1.135,6.11 0.89,6.11 L0.89,5.22277778 C1.135,5.22277778 1.33222222,5.02277778 1.33222222,4.77777778 C1.33222222,4.53277778 1.135,4.33277778 0.89,4.33277778 L0.89,3.44555556 C1.135,3.44555556 1.33222222,3.24555556 1.33222222,3.00055556 C1.33222222,2.755 1.135,2.55555556 0.89,2.55555556 L0.89,1.66555556 C1.135,1.66555556 1.33222222,1.46833333 1.33222222,1.22333333 L2.22222222,1.22333333 Z M1.09388889,25.2227778 C1.06333333,25.2227778 1.035,25.2094444 1.00666667,25.2011111 C0.937777778,25.1683333 0.89,25.0988889 0.89,25.0166667 L0.89,18.5561111 L19.11,18.5561111 L19.11,25.0166667 C19.11,25.0988889 19.0622222,25.1661111 18.9933333,25.2011111 C18.965,25.2094444 18.9366667,25.2227778 18.9061111,25.2227778 L1.09388889,25.2227778 Z M1.65166667,17.6661111 L7.93388889,12.3188889 C7.95777778,12.3233333 7.97722222,12.3344444 7.99888889,12.3344444 C8.01222222,12.3344444 8.02111111,12.3277778 8.03166667,12.3277778 L12.5672222,16.8633333 C12.7411111,17.0366667 13.0211111,17.0366667 13.1966667,16.8633333 C13.37,16.6872222 13.37,16.4077778 13.1966667,16.2338889 L11.0588889,14.0961111 L15.1344444,9.63444444 L19.11,13.4127778 L19.11,17.6661111 L1.65166667,17.6661111 Z" id="Fill-1"></path>
                            <path d="M6.90777778,20.2205556 C6.76,20.0988889 6.59277778,20.0055556 6.40611111,19.9472222 C6.21944444,19.8861111 6.03055556,19.8561111 5.84222222,19.8561111 L4.55277778,19.8561111 L4.55277778,24.3327778 L5.28222222,24.3327778 L5.28222222,22.7161111 L5.82222222,22.7161111 C6.05888889,22.7161111 6.27388889,22.6833333 6.46722222,22.6138889 C6.66222222,22.5444444 6.82722222,22.4472222 6.96611111,22.3211111 C7.10277778,22.1972222 7.21111111,22.0411111 7.28722222,21.8566667 C7.36555556,21.6722222 7.40444444,21.4683333 7.40444444,21.2405556 C7.40444444,21.0255556 7.35666667,20.8322222 7.26555556,20.6611111 C7.17444444,20.4872222 7.055,20.3422222 6.90777778,20.2205556 Z M6.63222222,21.6983333 C6.58611111,21.8222222 6.52777778,21.9194444 6.45611111,21.9872222 C6.38222222,22.0566667 6.30222222,22.1061111 6.21555556,22.1366667 C6.12833333,22.1672222 6.03944444,22.1822222 5.95055556,22.1822222 L5.28222222,22.1822222 L5.28222222,20.4072222 L5.82888889,20.4072222 C6.01555556,20.4072222 6.16555556,20.4372222 6.27833333,20.4961111 C6.39111111,20.5544444 6.48,20.6283333 6.54277778,20.715 C6.60611111,20.8022222 6.64722222,20.8933333 6.66666667,20.9888889 C6.68833333,21.0822222 6.69722222,21.1666667 6.69722222,21.2405556 C6.69722222,21.4227778 6.67555556,21.5744444 6.63222222,21.6983333 Z" id="Fill-2"></path>
                            <polygon id="Fill-3" points="10.7333333 22.9416667 8.97555556 19.8561111 8.23555556 19.8561111 8.23555556 24.3327778 8.97555556 24.3327778 8.97555556 21.2472222 10.7333333 24.3327778 11.4733333 24.3327778 11.4733333 19.8561111 10.7333333 19.8561111"></polygon>
                            <path d="M14.3661111,22.5227778 L15.1261111,22.5227778 L15.1261111,23.6277778 C15.0933333,23.6733333 15.0433333,23.7077778 14.9738889,23.7316667 C14.9044444,23.7555556 14.8327778,23.775 14.7588889,23.7905556 C14.6833333,23.8033333 14.6094444,23.8144444 14.5333333,23.8183333 C14.4572222,23.825 14.3988889,23.8294444 14.3533333,23.8294444 C14.2077778,23.8294444 14.0688889,23.7944444 13.9388889,23.725 C13.8066667,23.6555556 13.6894444,23.5516667 13.585,23.4105556 C13.4833333,23.2672222 13.4005556,23.085 13.3422222,22.8638889 C13.2833333,22.64 13.2527778,22.3777778 13.2488889,22.0738889 C13.2527778,21.7611111 13.2833333,21.4988889 13.3461111,21.2838889 C13.4072222,21.0688889 13.4894444,20.8933333 13.5983333,20.7588889 C13.7044444,20.6222222 13.8261111,20.5266667 13.9627778,20.47 C14.0972222,20.4116667 14.2405556,20.3855556 14.39,20.3855556 C14.525,20.3855556 14.6527778,20.4116667 14.7788889,20.4633333 C14.9044444,20.5155556 15.015,20.6 15.1127778,20.7194444 L15.6183333,20.2683333 C15.4511111,20.1077778 15.2627778,19.9861111 15.0522222,19.9038889 C14.8416667,19.8233333 14.6161111,19.7822222 14.3727778,19.7822222 C14.1083333,19.7822222 13.865,19.8322222 13.6372222,19.9316667 C13.4094444,20.0316667 13.2116667,20.1772222 13.0444444,20.3661111 C12.8777778,20.5566667 12.745,20.7955556 12.65,21.08 C12.5544444,21.3661111 12.5066667,21.6983333 12.5066667,22.0738889 C12.5066667,22.4494444 12.5544444,22.7833333 12.65,23.07 C12.745,23.3583333 12.8755556,23.5972222 13.0444444,23.7883333 C13.2116667,23.9772222 13.4094444,24.1222222 13.635,24.2177778 C13.8583333,24.3155556 14.1061111,24.3655556 14.3727778,24.3655556 C14.505,24.3655556 14.6416667,24.3544444 14.7766667,24.335 C14.9111111,24.3133333 15.0433333,24.2788889 15.1716667,24.2311111 C15.2994444,24.1833333 15.4211111,24.12 15.5361111,24.0466667 C15.6511111,23.9705556 15.755,23.875 15.8483333,23.7577778 L15.8483333,22.0261111 L14.3661111,22.0261111 L14.3661111,22.5227778 Z" id="Fill-4"></path>
                            <path d="M2.22222222,2.11055556 C2.22222222,2.35611111 2.02277778,2.55555556 1.77722222,2.55555556 C1.53222222,2.55555556 1.33222222,2.35611111 1.33222222,2.11055556 C1.33222222,1.86555556 1.53222222,1.66555556 1.77722222,1.66555556 C2.02277778,1.66555556 2.22222222,1.86555556 2.22222222,2.11055556 Z" id="Fill-5"></path>
                            <path d="M3.99944444,2.11055556 C3.99944444,2.35611111 3.80222222,2.55555556 3.55444444,2.55555556 C3.30944444,2.55555556 3.11222222,2.35611111 3.11222222,2.11055556 C3.11222222,1.86555556 3.30944444,1.66555556 3.55444444,1.66555556 C3.80222222,1.66555556 3.99944444,1.86555556 3.99944444,2.11055556 Z" id="Fill-6"></path>
                            <path d="M5.77666667,2.11055556 C5.77666667,2.35611111 5.57944444,2.55555556 5.33444444,2.55555556 C5.08666667,2.55555556 4.88944444,2.35611111 4.88944444,2.11055556 C4.88944444,1.86555556 5.08666667,1.66555556 5.33444444,1.66555556 C5.57944444,1.66555556 5.77666667,1.86555556 5.77666667,2.11055556 Z" id="Fill-7"></path>
                            <path d="M7.55666667,2.11055556 C7.55666667,2.35611111 7.35666667,2.55555556 7.11166667,2.55555556 C6.86611111,2.55555556 6.66666667,2.35611111 6.66666667,2.11055556 C6.66666667,1.86555556 6.86611111,1.66555556 7.11166667,1.66555556 C7.35666667,1.66555556 7.55666667,1.86555556 7.55666667,2.11055556 Z" id="Fill-8"></path>
                            <path d="M9.33388889,2.11055556 C9.33388889,2.35611111 9.13388889,2.55555556 8.88888889,2.55555556 C8.64388889,2.55555556 8.44388889,2.35611111 8.44388889,2.11055556 C8.44388889,1.86555556 8.64388889,1.66555556 8.88888889,1.66555556 C9.13388889,1.66555556 9.33388889,1.86555556 9.33388889,2.11055556 Z" id="Fill-9"></path>
                            <path d="M11.1111111,2.11055556 C11.1111111,2.35611111 10.9116667,2.55555556 10.6661111,2.55555556 C10.4211111,2.55555556 10.2211111,2.35611111 10.2211111,2.11055556 C10.2211111,1.86555556 10.4211111,1.66555556 10.6661111,1.66555556 C10.9116667,1.66555556 11.1111111,1.86555556 11.1111111,2.11055556 Z" id="Fill-10"></path>
                            <path d="M12.8883333,2.11055556 C12.8883333,2.35611111 12.6911111,2.55555556 12.4433333,2.55555556 C12.1983333,2.55555556 12.0011111,2.35611111 12.0011111,2.11055556 C12.0011111,1.86555556 12.1983333,1.66555556 12.4433333,1.66555556 C12.6911111,1.66555556 12.8883333,1.86555556 12.8883333,2.11055556 Z" id="Fill-11"></path>
                            <path d="M13.7783333,3.00055556 C13.7783333,3.24555556 13.5783333,3.44555556 13.3333333,3.44555556 C13.0883333,3.44555556 12.8883333,3.24555556 12.8883333,3.00055556 C12.8883333,2.755 13.0883333,2.55555556 13.3333333,2.55555556 C13.5783333,2.55555556 13.7783333,2.755 13.7783333,3.00055556 Z" id="Fill-12"></path>
                            <path d="M12.0011111,3.00055556 C12.0011111,3.24555556 11.8011111,3.44555556 11.5561111,3.44555556 C11.3105556,3.44555556 11.1111111,3.24555556 11.1111111,3.00055556 C11.1111111,2.755 11.3105556,2.55555556 11.5561111,2.55555556 C11.8011111,2.55555556 12.0011111,2.755 12.0011111,3.00055556 Z" id="Fill-13"></path>
                            <path d="M10.2211111,3.00055556 C10.2211111,3.24555556 10.0238889,3.44555556 9.77888889,3.44555556 C9.53111111,3.44555556 9.33388889,3.24555556 9.33388889,3.00055556 C9.33388889,2.755 9.53111111,2.55555556 9.77888889,2.55555556 C10.0238889,2.55555556 10.2211111,2.755 10.2211111,3.00055556 Z" id="Fill-14"></path>
                            <path d="M8.44388889,3.00055556 C8.44388889,3.24555556 8.24666667,3.44555556 7.99888889,3.44555556 C7.75388889,3.44555556 7.55666667,3.24555556 7.55666667,3.00055556 C7.55666667,2.755 7.75388889,2.55555556 7.99888889,2.55555556 C8.24666667,2.55555556 8.44388889,2.755 8.44388889,3.00055556 Z" id="Fill-15"></path>
                            <path d="M6.66666667,3.00055556 C6.66666667,3.24555556 6.46722222,3.44555556 6.22166667,3.44555556 C5.97666667,3.44555556 5.77666667,3.24555556 5.77666667,3.00055556 C5.77666667,2.755 5.97666667,2.55555556 6.22166667,2.55555556 C6.46722222,2.55555556 6.66666667,2.755 6.66666667,3.00055556 Z" id="Fill-16"></path>
                            <path d="M4.88944444,3.00055556 C4.88944444,3.24555556 4.68944444,3.44555556 4.44444444,3.44555556 C4.19944444,3.44555556 3.99944444,3.24555556 3.99944444,3.00055556 C3.99944444,2.755 4.19944444,2.55555556 4.44444444,2.55555556 C4.68944444,2.55555556 4.88944444,2.755 4.88944444,3.00055556 Z" id="Fill-17"></path>
                            <path d="M3.11222222,3.00055556 C3.11222222,3.24555556 2.91222222,3.44555556 2.66722222,3.44555556 C2.42166667,3.44555556 2.22222222,3.24555556 2.22222222,3.00055556 C2.22222222,2.755 2.42166667,2.55555556 2.66722222,2.55555556 C2.91222222,2.55555556 3.11222222,2.755 3.11222222,3.00055556 Z" id="Fill-18"></path>
                            <path d="M2.22222222,3.88777778 C2.22222222,4.13555556 2.02277778,4.33277778 1.77722222,4.33277778 C1.53222222,4.33277778 1.33222222,4.13555556 1.33222222,3.88777778 C1.33222222,3.64277778 1.53222222,3.44555556 1.77722222,3.44555556 C2.02277778,3.44555556 2.22222222,3.64277778 2.22222222,3.88777778 Z" id="Fill-19"></path>
                            <path d="M3.99944444,3.88777778 C3.99944444,4.13555556 3.80222222,4.33277778 3.55444444,4.33277778 C3.30944444,4.33277778 3.11222222,4.13555556 3.11222222,3.88777778 C3.11222222,3.64277778 3.30944444,3.44555556 3.55444444,3.44555556 C3.80222222,3.44555556 3.99944444,3.64277778 3.99944444,3.88777778 Z" id="Fill-20"></path>
                            <path d="M5.77666667,3.88777778 C5.77666667,4.13555556 5.57944444,4.33277778 5.33444444,4.33277778 C5.08666667,4.33277778 4.88944444,4.13555556 4.88944444,3.88777778 C4.88944444,3.64277778 5.08666667,3.44555556 5.33444444,3.44555556 C5.57944444,3.44555556 5.77666667,3.64277778 5.77666667,3.88777778 Z" id="Fill-21"></path>
                            <path d="M7.55666667,3.88777778 C7.55666667,4.13555556 7.35666667,4.33277778 7.11166667,4.33277778 C6.86611111,4.33277778 6.66666667,4.13555556 6.66666667,3.88777778 C6.66666667,3.64277778 6.86611111,3.44555556 7.11166667,3.44555556 C7.35666667,3.44555556 7.55666667,3.64277778 7.55666667,3.88777778 Z" id="Fill-22"></path>
                            <path d="M9.33388889,3.88777778 C9.33388889,4.13555556 9.13388889,4.33277778 8.88888889,4.33277778 C8.64388889,4.33277778 8.44388889,4.13555556 8.44388889,3.88777778 C8.44388889,3.64277778 8.64388889,3.44555556 8.88888889,3.44555556 C9.13388889,3.44555556 9.33388889,3.64277778 9.33388889,3.88777778 Z" id="Fill-23"></path>
                            <path d="M11.1111111,3.88777778 C11.1111111,4.13555556 10.9116667,4.33277778 10.6661111,4.33277778 C10.4211111,4.33277778 10.2211111,4.13555556 10.2211111,3.88777778 C10.2211111,3.64277778 10.4211111,3.44555556 10.6661111,3.44555556 C10.9116667,3.44555556 11.1111111,3.64277778 11.1111111,3.88777778 Z" id="Fill-24"></path>
                            <path d="M12.8883333,3.88777778 C12.8883333,4.13555556 12.6911111,4.33277778 12.4433333,4.33277778 C12.1983333,4.33277778 12.0011111,4.13555556 12.0011111,3.88777778 C12.0011111,3.64277778 12.1983333,3.44555556 12.4433333,3.44555556 C12.6911111,3.44555556 12.8883333,3.64277778 12.8883333,3.88777778 Z" id="Fill-25"></path>
                            <path d="M13.7783333,4.77777778 C13.7783333,5.02277778 13.5783333,5.22277778 13.3333333,5.22277778 C13.0883333,5.22277778 12.8883333,5.02277778 12.8883333,4.77777778 C12.8883333,4.53277778 13.0883333,4.33277778 13.3333333,4.33277778 C13.5783333,4.33277778 13.7783333,4.53277778 13.7783333,4.77777778 Z" id="Fill-26"></path>
                            <path d="M12.0011111,4.77777778 C12.0011111,5.02277778 11.8011111,5.22277778 11.5561111,5.22277778 C11.3105556,5.22277778 11.1111111,5.02277778 11.1111111,4.77777778 C11.1111111,4.53277778 11.3105556,4.33277778 11.5561111,4.33277778 C11.8011111,4.33277778 12.0011111,4.53277778 12.0011111,4.77777778 Z" id="Fill-27"></path>
                            <path d="M10.2211111,4.77777778 C10.2211111,5.02277778 10.0238889,5.22277778 9.77888889,5.22277778 C9.53111111,5.22277778 9.33388889,5.02277778 9.33388889,4.77777778 C9.33388889,4.53277778 9.53111111,4.33277778 9.77888889,4.33277778 C10.0238889,4.33277778 10.2211111,4.53277778 10.2211111,4.77777778 Z" id="Fill-28"></path>
                            <path d="M8.44388889,4.77777778 C8.44388889,5.02277778 8.24666667,5.22277778 7.99888889,5.22277778 C7.75388889,5.22277778 7.55666667,5.02277778 7.55666667,4.77777778 C7.55666667,4.53277778 7.75388889,4.33277778 7.99888889,4.33277778 C8.24666667,4.33277778 8.44388889,4.53277778 8.44388889,4.77777778 Z" id="Fill-29"></path>
                            <path d="M6.66666667,4.77777778 C6.66666667,5.02277778 6.46722222,5.22277778 6.22166667,5.22277778 C5.97666667,5.22277778 5.77666667,5.02277778 5.77666667,4.77777778 C5.77666667,4.53277778 5.97666667,4.33277778 6.22166667,4.33277778 C6.46722222,4.33277778 6.66666667,4.53277778 6.66666667,4.77777778 Z" id="Fill-30"></path>
                            <path d="M4.88944444,4.77777778 C4.88944444,5.02277778 4.68944444,5.22277778 4.44444444,5.22277778 C4.19944444,5.22277778 3.99944444,5.02277778 3.99944444,4.77777778 C3.99944444,4.53277778 4.19944444,4.33277778 4.44444444,4.33277778 C4.68944444,4.33277778 4.88944444,4.53277778 4.88944444,4.77777778 Z" id="Fill-31"></path>
                            <path d="M3.11222222,4.77777778 C3.11222222,5.02277778 2.91222222,5.22277778 2.66722222,5.22277778 C2.42166667,5.22277778 2.22222222,5.02277778 2.22222222,4.77777778 C2.22222222,4.53277778 2.42166667,4.33277778 2.66722222,4.33277778 C2.91222222,4.33277778 3.11222222,4.53277778 3.11222222,4.77777778 Z" id="Fill-32"></path>
                            <path d="M2.22222222,5.66777778 C2.22222222,5.91277778 2.02277778,6.11 1.77722222,6.11 C1.53222222,6.11 1.33222222,5.91277778 1.33222222,5.66777778 C1.33222222,5.42 1.53222222,5.22277778 1.77722222,5.22277778 C2.02277778,5.22277778 2.22222222,5.42 2.22222222,5.66777778 Z" id="Fill-33"></path>
                            <path d="M7.55666667,5.66777778 C7.55666667,5.91277778 7.35666667,6.11 7.11166667,6.11 C6.86611111,6.11 6.66666667,5.91277778 6.66666667,5.66777778 C6.66666667,5.42 6.86611111,5.22277778 7.11166667,5.22277778 C7.35666667,5.22277778 7.55666667,5.42 7.55666667,5.66777778 Z" id="Fill-34"></path>
                            <path d="M9.33388889,5.66777778 C9.33388889,5.91277778 9.13388889,6.11 8.88888889,6.11 C8.64388889,6.11 8.44388889,5.91277778 8.44388889,5.66777778 C8.44388889,5.42 8.64388889,5.22277778 8.88888889,5.22277778 C9.13388889,5.22277778 9.33388889,5.42 9.33388889,5.66777778 Z" id="Fill-35"></path>
                            <path d="M11.1111111,5.66777778 C11.1111111,5.91277778 10.9116667,6.11 10.6661111,6.11 C10.4211111,6.11 10.2211111,5.91277778 10.2211111,5.66777778 C10.2211111,5.42 10.4211111,5.22277778 10.6661111,5.22277778 C10.9116667,5.22277778 11.1111111,5.42 11.1111111,5.66777778 Z" id="Fill-36"></path>
                            <path d="M12.8883333,5.66777778 C12.8883333,5.91277778 12.6911111,6.11 12.4433333,6.11 C12.1983333,6.11 12.0011111,5.91277778 12.0011111,5.66777778 C12.0011111,5.42 12.1983333,5.22277778 12.4433333,5.22277778 C12.6911111,5.22277778 12.8883333,5.42 12.8883333,5.66777778 Z" id="Fill-37"></path>
                            <path d="M13.7783333,6.555 C13.7783333,6.80055556 13.5783333,7 13.3333333,7 C13.0883333,7 12.8883333,6.80055556 12.8883333,6.555 C12.8883333,6.31 13.0883333,6.11 13.3333333,6.11 C13.5783333,6.11 13.7783333,6.31 13.7783333,6.555 Z" id="Fill-38"></path>
                            <path d="M12.0011111,6.555 C12.0011111,6.80055556 11.8011111,7 11.5561111,7 C11.3105556,7 11.1111111,6.80055556 11.1111111,6.555 C11.1111111,6.31 11.3105556,6.11 11.5561111,6.11 C11.8011111,6.11 12.0011111,6.31 12.0011111,6.555 Z" id="Fill-39"></path>
                            <path d="M10.2211111,6.555 C10.2211111,6.80055556 10.0238889,7 9.77888889,7 C9.53111111,7 9.33388889,6.80055556 9.33388889,6.555 C9.33388889,6.31 9.53111111,6.11 9.77888889,6.11 C10.0238889,6.11 10.2211111,6.31 10.2211111,6.555 Z" id="Fill-40"></path>
                            <path d="M8.44388889,6.555 C8.44388889,6.80055556 8.24666667,7 7.99888889,7 C7.75388889,7 7.55666667,6.80055556 7.55666667,6.555 C7.55666667,6.31 7.75388889,6.11 7.99888889,6.11 C8.24666667,6.11 8.44388889,6.31 8.44388889,6.555 Z" id="Fill-41"></path>
                            <path d="M9.33388889,7.445 C9.33388889,7.69 9.13388889,7.89 8.88888889,7.89 C8.64388889,7.89 8.44388889,7.69 8.44388889,7.445 C8.44388889,7.19944444 8.64388889,7 8.88888889,7 C9.13388889,7 9.33388889,7.19944444 9.33388889,7.445 Z" id="Fill-42"></path>
                            <path d="M11.1111111,7.445 C11.1111111,7.69 10.9116667,7.89 10.6661111,7.89 C10.4211111,7.89 10.2211111,7.69 10.2211111,7.445 C10.2211111,7.19944444 10.4211111,7 10.6661111,7 C10.9116667,7 11.1111111,7.19944444 11.1111111,7.445 Z" id="Fill-43"></path>
                            <path d="M12.8883333,7.445 C12.8883333,7.69 12.6911111,7.89 12.4433333,7.89 C12.1983333,7.89 12.0011111,7.69 12.0011111,7.445 C12.0011111,7.19944444 12.1983333,7 12.4433333,7 C12.6911111,7 12.8883333,7.19944444 12.8883333,7.445 Z" id="Fill-44"></path>
                            <path d="M14.6655556,7.445 C14.6655556,7.69 14.4683333,7.89 14.2233333,7.89 C13.9755556,7.89 13.7783333,7.69 13.7783333,7.445 C13.7783333,7.19944444 13.9755556,7 14.2233333,7 C14.4683333,7 14.6655556,7.19944444 14.6655556,7.445 Z" id="Fill-45"></path>
                            <path d="M16.4455556,7.445 C16.4455556,7.69 16.2455556,7.89 16.0005556,7.89 C15.755,7.89 15.5555556,7.69 15.5555556,7.445 C15.5555556,7.19944444 15.755,7 16.0005556,7 C16.2455556,7 16.4455556,7.19944444 16.4455556,7.445 Z" id="Fill-46"></path>
                            <path d="M17.3327778,8.33222222 C17.3327778,8.58 17.1355556,8.77722222 16.8877778,8.77722222 C16.6427778,8.77722222 16.4455556,8.58 16.4455556,8.33222222 C16.4455556,8.08722222 16.6427778,7.89 16.8877778,7.89 C17.1355556,7.89 17.3327778,8.08722222 17.3327778,8.33222222 Z" id="Fill-47"></path>
                            <path d="M19.11,10.1122222 C19.11,10.3572222 18.9127778,10.5544444 18.6677778,10.5544444 C18.42,10.5544444 18.2227778,10.3572222 18.2227778,10.1122222 C18.2227778,9.86444444 18.42,9.66722222 18.6677778,9.66722222 C18.9127778,9.66722222 19.11,9.86444444 19.11,10.1122222 Z" id="Fill-48"></path>
                            <path d="M18.2227778,9.22222222 C18.2227778,9.46722222 18.0227778,9.66722222 17.7777778,9.66722222 C17.5327778,9.66722222 17.3327778,9.46722222 17.3327778,9.22222222 C17.3327778,8.97722222 17.5327778,8.77722222 17.7777778,8.77722222 C18.0227778,8.77722222 18.2227778,8.97722222 18.2227778,9.22222222 Z" id="Fill-49"></path>
                            <path d="M19.11,8.33222222 C19.11,8.58 18.9127778,8.77722222 18.6677778,8.77722222 C18.42,8.77722222 18.2227778,8.58 18.2227778,8.33222222 C18.2227778,8.08722222 18.42,7.89 18.6677778,7.89 C18.9127778,7.89 19.11,8.08722222 19.11,8.33222222 Z" id="Fill-50"></path>
                            <path d="M18.2227778,7.445 C18.2227778,7.69 18.0227778,7.89 17.7777778,7.89 C17.5327778,7.89 17.3327778,7.69 17.3327778,7.445 C17.3327778,7.19944444 17.5327778,7 17.7777778,7 C18.0227778,7 18.2227778,7.19944444 18.2227778,7.445 Z" id="Fill-51"></path>
                            <path d="M13.7783333,8.33222222 C13.7783333,8.58 13.5783333,8.77722222 13.3333333,8.77722222 C13.0883333,8.77722222 12.8883333,8.58 12.8883333,8.33222222 C12.8883333,8.08722222 13.0883333,7.89 13.3333333,7.89 C13.5783333,7.89 13.7783333,8.08722222 13.7783333,8.33222222 Z" id="Fill-52"></path>
                            <path d="M12.0011111,8.33222222 C12.0011111,8.58 11.8011111,8.77722222 11.5561111,8.77722222 C11.3105556,8.77722222 11.1111111,8.58 11.1111111,8.33222222 C11.1111111,8.08722222 11.3105556,7.89 11.5561111,7.89 C11.8011111,7.89 12.0011111,8.08722222 12.0011111,8.33222222 Z" id="Fill-53"></path>
                            <path d="M10.2211111,8.33222222 C10.2211111,8.58 10.0238889,8.77722222 9.77888889,8.77722222 C9.53111111,8.77722222 9.33388889,8.58 9.33388889,8.33222222 C9.33388889,8.08722222 9.53111111,7.89 9.77888889,7.89 C10.0238889,7.89 10.2211111,8.08722222 10.2211111,8.33222222 Z" id="Fill-54"></path>
                            <path d="M8.44388889,8.33222222 C8.44388889,8.58 8.24666667,8.77722222 7.99888889,8.77722222 C7.75388889,8.77722222 7.55666667,8.58 7.55666667,8.33222222 C7.55666667,8.08722222 7.75388889,7.89 7.99888889,7.89 C8.24666667,7.89 8.44388889,8.08722222 8.44388889,8.33222222 Z" id="Fill-55"></path>
                            <path d="M1.77722222,9.66722222 C1.96611111,9.66722222 2.12666667,9.54777778 2.18944444,9.38055556 C2.25055556,9.515 2.32222222,9.64333333 2.40444444,9.76277778 C2.29611111,9.84277778 2.22222222,9.96666667 2.22222222,10.1122222 C2.22222222,10.3572222 2.42166667,10.5544444 2.66722222,10.5544444 C2.81055556,10.5544444 2.93166667,10.4833333 3.01222222,10.3788889 C3.12722222,10.4611111 3.24888889,10.5327778 3.37666667,10.5938889 C3.22055556,10.6633333 3.11222222,10.8172222 3.11222222,10.9994444 C3.11222222,11.245 3.30944444,11.4444444 3.55444444,11.4444444 C3.8,11.4444444 3.99944444,11.245 3.99944444,10.9994444 C3.99944444,10.9216667 3.97333333,10.85 3.93888889,10.7866667 C4.10166667,10.8194444 4.27111111,10.8388889 4.44444444,10.8388889 C4.61777778,10.8388889 4.78722222,10.8194444 4.95,10.7866667 C4.91555556,10.85 4.88944444,10.9216667 4.88944444,10.9994444 C4.88944444,11.245 5.08888889,11.4444444 5.33444444,11.4444444 C5.57944444,11.4444444 5.77666667,11.245 5.77666667,10.9994444 C5.77666667,10.8172222 5.66833333,10.6633333 5.51222222,10.5938889 C5.64,10.5327778 5.76166667,10.4611111 5.87666667,10.3788889 C5.95722222,10.4833333 6.07833333,10.5544444 6.22166667,10.5544444 C6.46722222,10.5544444 6.66666667,10.3572222 6.66666667,10.1122222 C6.66666667,9.96666667 6.59277778,9.84277778 6.48444444,9.76277778 C6.56666667,9.64333333 6.63833333,9.515 6.69944444,9.38055556 C6.76222222,9.54777778 6.92277778,9.66722222 7.11166667,9.66722222 C7.35666667,9.66722222 7.55666667,9.46722222 7.55666667,9.22222222 C7.55666667,8.97722222 7.35666667,8.77722222 7.11166667,8.77722222 C7.02055556,8.77722222 6.94,8.81222222 6.87055556,8.85777778 C6.90333333,8.69944444 6.92055556,8.53444444 6.92055556,8.36277778 C6.92055556,8.16777778 6.89444444,7.97888889 6.85111111,7.79444444 C6.925,7.85055556 7.01166667,7.89 7.11166667,7.89 C7.35666667,7.89 7.55666667,7.69 7.55666667,7.445 C7.55666667,7.19944444 7.35666667,7 7.11166667,7 C6.90777778,7 6.74277778,7.14111111 6.69055556,7.33 C6.62333333,7.18666667 6.545,7.05222222 6.45388889,6.92611111 C6.58,6.84611111 6.66666667,6.71333333 6.66666667,6.555 C6.66666667,6.31 6.46722222,6.11 6.22166667,6.11 C6.06111111,6.11 5.92666667,6.20111111 5.84833333,6.32944444 C5.71611111,6.23611111 5.575,6.15777778 5.42555556,6.09277778 C5.625,6.04944444 5.77666667,5.88 5.77666667,5.66777778 C5.77666667,5.42222222 5.57944444,5.22277778 5.33444444,5.22277778 C5.08888889,5.22277778 4.88944444,5.42222222 4.88944444,5.66777778 C4.88944444,5.77833333 4.93277778,5.87611111 5.00222222,5.95388889 C4.82222222,5.91277778 4.63555556,5.88888889 4.44444444,5.88888889 C4.25333333,5.88888889 4.06666667,5.91277778 3.88666667,5.95388889 C3.95611111,5.87611111 3.99944444,5.77833333 3.99944444,5.66777778 C3.99944444,5.42222222 3.8,5.22277778 3.55444444,5.22277778 C3.30944444,5.22277778 3.11222222,5.42222222 3.11222222,5.66777778 C3.11222222,5.88 3.26388889,6.04944444 3.46333333,6.09277778 C3.31388889,6.15777778 3.17277778,6.23611111 3.04055556,6.32944444 C2.96222222,6.20111111 2.82777778,6.11 2.66722222,6.11 C2.42166667,6.11 2.22222222,6.31 2.22222222,6.555 C2.22222222,6.71333333 2.30888889,6.84611111 2.435,6.92611111 C2.34388889,7.05222222 2.26555556,7.18666667 2.19833333,7.33 C2.14611111,7.14111111 1.98111111,7 1.77722222,7 C1.53222222,7 1.33222222,7.19944444 1.33222222,7.445 C1.33222222,7.69 1.53222222,7.89 1.77722222,7.89 C1.87722222,7.89 1.96388889,7.85055556 2.03777778,7.79444444 C1.99444444,7.97888889 1.96833333,8.16777778 1.96833333,8.365 C1.96833333,8.53444444 1.98555556,8.69944444 2.01833333,8.86 C1.94888889,8.81222222 1.86833333,8.77722222 1.77722222,8.77722222 C1.53222222,8.77722222 1.33222222,8.97722222 1.33222222,9.22222222 C1.33222222,9.46722222 1.53222222,9.66722222 1.77722222,9.66722222 Z M4.44444444,6.77888889 C5.31888889,6.77888889 6.03055556,7.48833333 6.03055556,8.365 C6.03055556,9.23944444 5.31888889,9.94944444 4.44444444,9.94944444 C3.57,9.94944444 2.85833333,9.23944444 2.85833333,8.365 C2.85833333,7.48833333 3.57,6.77888889 4.44444444,6.77888889 Z" id="Fill-56"></path>
                            <path d="M9.33388889,9.22222222 C9.33388889,9.46722222 9.13388889,9.66722222 8.88888889,9.66722222 C8.64388889,9.66722222 8.44388889,9.46722222 8.44388889,9.22222222 C8.44388889,8.97722222 8.64388889,8.77722222 8.88888889,8.77722222 C9.13388889,8.77722222 9.33388889,8.97722222 9.33388889,9.22222222 Z" id="Fill-57"></path>
                            <path d="M11.1111111,9.22222222 C11.1111111,9.46722222 10.9116667,9.66722222 10.6661111,9.66722222 C10.4211111,9.66722222 10.2211111,9.46722222 10.2211111,9.22222222 C10.2211111,8.97722222 10.4211111,8.77722222 10.6661111,8.77722222 C10.9116667,8.77722222 11.1111111,8.97722222 11.1111111,9.22222222 Z" id="Fill-58"></path>
                            <path d="M12.8883333,9.22222222 C12.8883333,9.46722222 12.6911111,9.66722222 12.4433333,9.66722222 C12.1983333,9.66722222 12.0011111,9.46722222 12.0011111,9.22222222 C12.0011111,8.97722222 12.1983333,8.77722222 12.4433333,8.77722222 C12.6911111,8.77722222 12.8883333,8.97722222 12.8883333,9.22222222 Z" id="Fill-59"></path>
                            <path d="M12.0011111,10.1122222 C12.0011111,10.3572222 11.8011111,10.5544444 11.5561111,10.5544444 C11.3105556,10.5544444 11.1111111,10.3572222 11.1111111,10.1122222 C11.1111111,9.86444444 11.3105556,9.66722222 11.5561111,9.66722222 C11.8011111,9.66722222 12.0011111,9.86444444 12.0011111,10.1122222 Z" id="Fill-60"></path>
                            <path d="M10.2211111,10.1122222 C10.2211111,10.3572222 10.0238889,10.5544444 9.77888889,10.5544444 C9.53111111,10.5544444 9.33388889,10.3572222 9.33388889,10.1122222 C9.33388889,9.86444444 9.53111111,9.66722222 9.77888889,9.66722222 C10.0238889,9.66722222 10.2211111,9.86444444 10.2211111,10.1122222 Z" id="Fill-61"></path>
                            <path d="M8.44388889,10.1122222 C8.44388889,10.3572222 8.24666667,10.5544444 7.99888889,10.5544444 C7.75388889,10.5544444 7.55666667,10.3572222 7.55666667,10.1122222 C7.55666667,9.86444444 7.75388889,9.66722222 7.99888889,9.66722222 C8.24666667,9.66722222 8.44388889,9.86444444 8.44388889,10.1122222 Z" id="Fill-62"></path>
                            <path d="M2.22222222,10.9994444 C2.22222222,11.245 2.02277778,11.4444444 1.77722222,11.4444444 C1.53222222,11.4444444 1.33222222,11.245 1.33222222,10.9994444 C1.33222222,10.7544444 1.53222222,10.5544444 1.77722222,10.5544444 C2.02277778,10.5544444 2.22222222,10.7544444 2.22222222,10.9994444 Z" id="Fill-63"></path>
                            <path d="M7.55666667,10.9994444 C7.55666667,11.245 7.35666667,11.4444444 7.11166667,11.4444444 C6.86611111,11.4444444 6.66666667,11.245 6.66666667,10.9994444 C6.66666667,10.7544444 6.86611111,10.5544444 7.11166667,10.5544444 C7.35666667,10.5544444 7.55666667,10.7544444 7.55666667,10.9994444 Z" id="Fill-64"></path>
                            <path d="M9.33388889,10.9994444 C9.33388889,11.245 9.13388889,11.4444444 8.88888889,11.4444444 C8.64388889,11.4444444 8.44388889,11.245 8.44388889,10.9994444 C8.44388889,10.7544444 8.64388889,10.5544444 8.88888889,10.5544444 C9.13388889,10.5544444 9.33388889,10.7544444 9.33388889,10.9994444 Z" id="Fill-65"></path>
                            <path d="M11.1111111,10.9994444 C11.1111111,11.245 10.9116667,11.4444444 10.6661111,11.4444444 C10.4211111,11.4444444 10.2211111,11.245 10.2211111,10.9994444 C10.2211111,10.7544444 10.4211111,10.5544444 10.6661111,10.5544444 C10.9116667,10.5544444 11.1111111,10.7544444 11.1111111,10.9994444 Z" id="Fill-66"></path>
                            <path d="M10.2211111,11.8894444 C10.2211111,12.1344444 10.0238889,12.3344444 9.77888889,12.3344444 C9.53111111,12.3344444 9.33388889,12.1344444 9.33388889,11.8894444 C9.33388889,11.6438889 9.53111111,11.4444444 9.77888889,11.4444444 C10.0238889,11.4444444 10.2211111,11.6438889 10.2211111,11.8894444 Z" id="Fill-67"></path>
                            <path d="M6.66666667,11.8894444 C6.66666667,12.1344444 6.46722222,12.3344444 6.22166667,12.3344444 C5.97666667,12.3344444 5.77666667,12.1344444 5.77666667,11.8894444 C5.77666667,11.6438889 5.97666667,11.4444444 6.22166667,11.4444444 C6.46722222,11.4444444 6.66666667,11.6438889 6.66666667,11.8894444 Z" id="Fill-68"></path>
                            <path d="M4.88944444,11.8894444 C4.88944444,12.1344444 4.68944444,12.3344444 4.44444444,12.3344444 C4.19944444,12.3344444 3.99944444,12.1344444 3.99944444,11.8894444 C3.99944444,11.6438889 4.19944444,11.4444444 4.44444444,11.4444444 C4.68944444,11.4444444 4.88944444,11.6438889 4.88944444,11.8894444 Z" id="Fill-69"></path>
                            <path d="M3.11222222,11.8894444 C3.11222222,12.1344444 2.91222222,12.3344444 2.66722222,12.3344444 C2.42166667,12.3344444 2.22222222,12.1344444 2.22222222,11.8894444 C2.22222222,11.6438889 2.42166667,11.4444444 2.66722222,11.4444444 C2.91222222,11.4444444 3.11222222,11.6438889 3.11222222,11.8894444 Z" id="Fill-70"></path>
                            <path d="M2.22222222,12.7766667 C2.22222222,13.0244444 2.02277778,13.2216667 1.77722222,13.2216667 C1.53222222,13.2216667 1.33222222,13.0244444 1.33222222,12.7766667 C1.33222222,12.5316667 1.53222222,12.3344444 1.77722222,12.3344444 C2.02277778,12.3344444 2.22222222,12.5316667 2.22222222,12.7766667 Z" id="Fill-71"></path>
                            <path d="M3.99944444,12.7766667 C3.99944444,13.0244444 3.80222222,13.2216667 3.55444444,13.2216667 C3.30944444,13.2216667 3.11222222,13.0244444 3.11222222,12.7766667 C3.11222222,12.5316667 3.30944444,12.3344444 3.55444444,12.3344444 C3.80222222,12.3344444 3.99944444,12.5316667 3.99944444,12.7766667 Z" id="Fill-72"></path>
                            <path d="M5.77666667,12.7766667 C5.77666667,13.0244444 5.57944444,13.2216667 5.33444444,13.2216667 C5.08666667,13.2216667 4.88944444,13.0244444 4.88944444,12.7766667 C4.88944444,12.5316667 5.08666667,12.3344444 5.33444444,12.3344444 C5.57944444,12.3344444 5.77666667,12.5316667 5.77666667,12.7766667 Z" id="Fill-73"></path>
                            <path d="M3.11222222,13.6666667 C3.11222222,13.9116667 2.91222222,14.1116667 2.66722222,14.1116667 C2.42166667,14.1116667 2.22222222,13.9116667 2.22222222,13.6666667 C2.22222222,13.4216667 2.42166667,13.2216667 2.66722222,13.2216667 C2.91222222,13.2216667 3.11222222,13.4216667 3.11222222,13.6666667 Z" id="Fill-74"></path>
                            <path d="M2.22222222,14.5566667 C2.22222222,14.8016667 2.02277778,14.9988889 1.77722222,14.9988889 C1.53222222,14.9988889 1.33222222,14.8016667 1.33222222,14.5566667 C1.33222222,14.3088889 1.53222222,14.1116667 1.77722222,14.1116667 C2.02277778,14.1116667 2.22222222,14.3088889 2.22222222,14.5566667 Z" id="Fill-75"></path>
                        </g>
                        <g id="jpg" transform="translate(54.192328, 15.031386) rotate(-10.000000) translate(-54.192328, -15.031386) translate(44.192328, 1.531386)" fill="#AAB9C1">
                            <path d="M19.755,5.75 L17.17,3.16333333 L14.9261111,0.921666667 L14.5833333,0.578333333 C14.4294444,0.422222222 14.2144444,0.333333333 13.9933333,0.333333333 L1.09388889,0.333333333 C0.568333333,0.333333333 -5.68434189e-14,0.741111111 -5.68434189e-14,1.63333333 L-5.68434189e-14,25.2227778 C-5.68434189e-14,25.5938889 0.373333333,25.9561111 0.816111111,26.0711111 C0.84,26.0777778 0.859444444,26.0861111 0.883333333,26.0905556 C0.952777778,26.1038889 1.02444444,26.11 1.09388889,26.11 L18.9061111,26.11 C18.9755556,26.11 19.0472222,26.1038889 19.1166667,26.0905556 C19.1405556,26.0861111 19.1622222,26.0777778 19.1838889,26.0711111 C19.6266667,25.9561111 20,25.5938889 20,25.2227778 L20,6.54666667 C20,6.20555556 19.9588889,5.95166667 19.755,5.75 Z M18.4155556,5.66777778 L14.6655556,5.66777778 L14.6655556,1.91777778 L18.4155556,5.66777778 Z M1.09388889,1.22333333 L13.8044444,1.22333333 C13.7888889,1.27722222 13.7783333,1.33611111 13.7783333,1.39666667 L13.7783333,6.555 L18.9366667,6.555 C18.9972222,6.555 19.0538889,6.54444444 19.11,6.52888889 L19.11,6.54666667 L19.11,12.1866667 L15.4166667,8.67777778 C15.33,8.595 15.2194444,8.55166667 15.0955556,8.55611111 C14.9761111,8.56055556 14.8633333,8.61222222 14.7827778,8.70111111 L10.4294444,13.4672222 L8.32055556,11.36 C8.15777778,11.1972222 7.895,11.1861111 7.71944444,11.3361111 L0.89,17.15 L0.89,1.63333333 C0.89,1.53777778 0.902777778,1.22333333 1.09388889,1.22333333 Z M1.09388889,25.2227778 C1.06333333,25.2227778 1.035,25.2094444 1.00666667,25.2011111 C0.937777778,25.1683333 0.89,25.0988889 0.89,25.0166667 L0.89,18.5561111 L19.11,18.5561111 L19.11,25.0166667 C19.11,25.0988889 19.0622222,25.1683333 18.9933333,25.2011111 C18.965,25.2116667 18.9366667,25.2227778 18.9061111,25.2227778 L1.09388889,25.2227778 Z M1.65166667,17.6661111 L7.98388889,12.2777778 L12.5672222,16.8633333 C12.7411111,17.0366667 13.0211111,17.0366667 13.1966667,16.8633333 C13.37,16.6872222 13.37,16.4077778 13.1966667,16.2338889 L11.0588889,14.0961111 L15.1344444,9.63444444 L19.11,13.4127778 L19.11,17.6661111 L1.65166667,17.6661111 Z" id="Fill-1"></path>
                            <path d="M5.71166667,23.1916667 C5.70555556,23.3888889 5.63611111,23.53 5.51,23.6122222 C5.38222222,23.6972222 5.21055556,23.7383333 4.99555556,23.7383333 C4.91111111,23.7383333 4.82,23.7272222 4.72222222,23.7077778 C4.62444444,23.6861111 4.53111111,23.6644444 4.44222222,23.6383333 C4.35333333,23.61 4.27277778,23.5822222 4.19722222,23.5538889 C4.12111111,23.5233333 4.06444444,23.4927778 4.02333333,23.465 L3.71333333,23.9572222 C3.79555556,24.0183333 3.89333333,24.0722222 4.01277778,24.12 C4.13,24.17 4.25111111,24.2133333 4.37944444,24.2527778 C4.50722222,24.2894444 4.63111111,24.3177778 4.75055556,24.3372222 C4.87,24.3544444 4.97388889,24.3633333 5.06277778,24.3633333 C5.24111111,24.3633333 5.41444444,24.3461111 5.58166667,24.3133333 C5.75111111,24.2788889 5.89833333,24.2177778 6.02888889,24.1311111 C6.15888889,24.0422222 6.26111111,23.9272222 6.33888889,23.7838889 C6.415,23.6405556 6.45388889,23.4627778 6.45388889,23.2522222 L6.45388889,19.765 L5.71166667,19.765 L5.71166667,23.1916667 Z" id="Fill-2"></path>
                            <path d="M9.89555556,20.2205556 C9.74833333,20.0988889 9.58111111,20.0055556 9.39444444,19.9472222 C9.20777778,19.8861111 9.02111111,19.8561111 8.83055556,19.8561111 L7.54111111,19.8561111 L7.54111111,24.3327778 L8.27277778,24.3327778 L8.27277778,22.7161111 L8.81277778,22.7161111 C9.04722222,22.7161111 9.26222222,22.6833333 9.45722222,22.6138889 C9.65055556,22.5444444 9.81777778,22.4472222 9.95444444,22.3211111 C10.0933333,22.1972222 10.1994444,22.0411111 10.2777778,21.8566667 C10.3538889,21.6722222 10.3927778,21.4683333 10.3927778,21.2405556 C10.3927778,21.0255556 10.3472222,20.8322222 10.2561111,20.6611111 C10.165,20.4872222 10.0433333,20.3422222 9.89555556,20.2205556 Z M9.62,21.6983333 C9.57444444,21.8222222 9.51611111,21.9194444 9.44444444,21.9872222 C9.37055556,22.0566667 9.29055556,22.1061111 9.20333333,22.1366667 C9.11666667,22.1672222 9.02777778,22.1822222 8.93888889,22.1822222 L8.27055556,22.1822222 L8.27055556,20.4072222 L8.81722222,20.4072222 C9.00388889,20.4072222 9.15388889,20.4372222 9.26666667,20.4961111 C9.38166667,20.5544444 9.46833333,20.6283333 9.53111111,20.715 C9.59444444,20.8022222 9.63555556,20.8933333 9.65722222,20.9888889 C9.67666667,21.0822222 9.68777778,21.1666667 9.68777778,21.2405556 C9.68777778,21.4227778 9.66388889,21.5744444 9.62,21.6983333 Z" id="Fill-3"></path>
                            <path d="M13.0033333,22.5227778 L13.7627778,22.5227778 L13.7627778,23.6277778 C13.7327778,23.6733333 13.6805556,23.7077778 13.6111111,23.7316667 C13.5438889,23.7555556 13.47,23.775 13.3961111,23.7905556 C13.3205556,23.8033333 13.2466667,23.8144444 13.1705556,23.8183333 C13.0966667,23.825 13.0361111,23.8294444 12.9927778,23.8294444 C12.8472222,23.8294444 12.7083333,23.7944444 12.5761111,23.725 C12.4433333,23.6555556 12.3266667,23.5516667 12.2244444,23.4105556 C12.12,23.2672222 12.04,23.085 11.9811111,22.8638889 C11.9227778,22.64 11.89,22.3777778 11.8861111,22.0738889 C11.89,21.7611111 11.9227778,21.4988889 11.9833333,21.2838889 C12.0444444,21.0688889 12.1288889,20.8933333 12.235,20.7588889 C12.3438889,20.6222222 12.4655556,20.5266667 12.6,20.47 C12.7366667,20.4116667 12.8777778,20.3855556 13.0294444,20.3855556 C13.1616667,20.3855556 13.2922222,20.4116667 13.4177778,20.4633333 C13.5416667,20.5155556 13.6544444,20.6 13.7522222,20.7194444 L14.2555556,20.2683333 C14.0905556,20.1077778 13.9016667,19.9861111 13.6916667,19.9038889 C13.4811111,19.8233333 13.2527778,19.7822222 13.01,19.7822222 C12.7472222,19.7822222 12.5022222,19.8322222 12.2766667,19.9316667 C12.0488889,20.0316667 11.8511111,20.1772222 11.6838889,20.3661111 C11.515,20.5566667 11.3822222,20.7955556 11.2888889,21.08 C11.1933333,21.3661111 11.1455556,21.6983333 11.1455556,22.0738889 C11.1455556,22.4494444 11.1933333,22.7833333 11.2888889,23.07 C11.3822222,23.3583333 11.515,23.5972222 11.6838889,23.7883333 C11.8511111,23.9772222 12.0488889,24.1222222 12.2722222,24.2177778 C12.4977778,24.3155556 12.7433333,24.3655556 13.01,24.3655556 C13.1444444,24.3655556 13.2788889,24.3544444 13.4138889,24.335 C13.5505556,24.3133333 13.6827778,24.2788889 13.8105556,24.2311111 C13.9366667,24.1833333 14.0583333,24.12 14.1733333,24.0466667 C14.2905556,23.9705556 14.3944444,23.875 14.4877778,23.7577778 L14.4877778,22.0261111 L13.0033333,22.0261111 L13.0033333,22.5227778 Z" id="Fill-4"></path>
                            <path d="M5.58611111,10.8388889 C6.95111111,10.8388889 8.06222222,9.72777778 8.06222222,8.365 C8.06222222,7 6.95111111,5.88888889 5.58611111,5.88888889 C4.22111111,5.88888889 3.11222222,7 3.11222222,8.365 C3.11222222,9.72777778 4.22111111,10.8388889 5.58611111,10.8388889 Z M5.58611111,6.77888889 C6.46055556,6.77888889 7.17222222,7.48833333 7.17222222,8.365 C7.17222222,9.23944444 6.46055556,9.94944444 5.58611111,9.94944444 C4.71111111,9.94944444 3.99944444,9.23944444 3.99944444,8.365 C3.99944444,7.48833333 4.71111111,6.77888889 5.58611111,6.77888889 Z" id="Fill-5"></path>
                        </g>
                        <g id="file" transform="translate(93.617009, 29.617009) rotate(45.000000) translate(-93.617009, -29.617009) translate(83.617009, 16.117009)" fill="#AAB9C1">
                            <path d="M19.755,5.75 L14.5833333,0.578333333 C14.425,0.42 14.2166667,0.333333333 13.9933333,0.333333333 L1.09388889,0.333333333 C0.490555556,0.333333333 -5.68434189e-14,0.823888889 -5.68434189e-14,1.42722222 L-5.68434189e-14,25.0166667 C-5.68434189e-14,25.62 0.490555556,26.11 1.09388889,26.11 L18.9061111,26.11 C19.5094444,26.11 20,25.62 20,25.0166667 L20,6.34 C20,6.11666667 19.9133333,5.90833333 19.755,5.75 Z M18.4155556,5.66777778 L14.6655556,5.66777778 L14.6655556,1.91777778 L18.4155556,5.66777778 Z M19.11,25.0166667 C19.11,25.1294444 19.0188889,25.2227778 18.9061111,25.2227778 L1.09388889,25.2227778 C0.981111111,25.2227778 0.89,25.1294444 0.89,25.0166667 L0.89,18.5561111 L19.11,18.5561111 L19.11,25.0166667 Z M0.89,17.6661111 L0.89,1.42722222 C0.89,1.31444444 0.981111111,1.22333333 1.09388889,1.22333333 L13.8044444,1.22333333 C13.7888889,1.27722222 13.7783333,1.33611111 13.7783333,1.39666667 L13.7783333,6.555 L18.9366667,6.555 C18.9972222,6.555 19.0538889,6.54444444 19.11,6.52888889 L19.11,17.6661111 L0.89,17.6661111 Z" id="Fill-1"></path>
                            <path d="M5.77666667,23.4455556 C6.75777778,23.4455556 7.55666667,22.6466667 7.55666667,21.6655556 C7.55666667,20.6872222 6.75777778,19.8883333 5.77666667,19.8883333 C4.79833333,19.8883333 3.99944444,20.6872222 3.99944444,21.6655556 C3.99944444,22.6466667 4.79833333,23.4455556 5.77666667,23.4455556 Z M5.77666667,20.7783333 C6.26722222,20.7783333 6.66666667,21.1777778 6.66666667,21.6655556 C6.66666667,22.1561111 6.26722222,22.5555556 5.77666667,22.5555556 C5.28888889,22.5555556 4.88944444,22.1561111 4.88944444,21.6655556 C4.88944444,21.1777778 5.28888889,20.7783333 5.77666667,20.7783333 Z" id="Fill-2"></path>
                            <path d="M10.2211111,23.4455556 C11.2022222,23.4455556 12.0011111,22.6466667 12.0011111,21.6655556 C12.0011111,20.6872222 11.2022222,19.8883333 10.2211111,19.8883333 C9.24277778,19.8883333 8.44388889,20.6872222 8.44388889,21.6655556 C8.44388889,22.6466667 9.24277778,23.4455556 10.2211111,23.4455556 Z M10.2211111,20.7783333 C10.7116667,20.7783333 11.1111111,21.1777778 11.1111111,21.6655556 C11.1111111,22.1561111 10.7116667,22.5555556 10.2211111,22.5555556 C9.73333333,22.5555556 9.33388889,22.1561111 9.33388889,21.6655556 C9.33388889,21.1777778 9.73333333,20.7783333 10.2211111,20.7783333 Z" id="Fill-3"></path>
                            <path d="M14.6655556,23.4455556 C15.6466667,23.4455556 16.4455556,22.6466667 16.4455556,21.6655556 C16.4455556,20.6872222 15.6466667,19.8883333 14.6655556,19.8883333 C13.6872222,19.8883333 12.8883333,20.6872222 12.8883333,21.6655556 C12.8883333,22.6466667 13.6872222,23.4455556 14.6655556,23.4455556 Z M14.6655556,20.7783333 C15.1561111,20.7783333 15.5555556,21.1777778 15.5555556,21.6655556 C15.5555556,22.1561111 15.1561111,22.5555556 14.6655556,22.5555556 C14.1777778,22.5555556 13.7783333,22.1561111 13.7783333,21.6655556 C13.7783333,21.1777778 14.1777778,20.7783333 14.6655556,20.7783333 Z" id="Fill-4"></path>
                        </g>
                        <g id="upload-to-cloud" transform="translate(27.000000, 41.000000)">
                            <g id="Group-3">
                                <mask id="mask-2" fill="white">
                                    <use xlink:href="#path-1"></use>
                                </mask>
                                <g id="Clip-2"></g>
                                <path d="M41.553,13.7663607 C41.0486949,6.10009836 34.6705169,0.0181311475 26.9025254,0.0181311475 C19.1317881,0.0181311475 12.7526949,6.10285246 12.2513644,13.7716393 C5.30481356,14.6483607 0,20.5843607 0,27.7071475 C0,35.462 6.28962712,41.7707213 14.0210085,41.7707213 L35.3427712,41.7707213 C35.9495847,41.7707213 36.4413051,41.2768197 36.4413051,40.6688525 C36.4413051,40.0601967 35.9495847,39.5672131 35.3427712,39.5672131 L14.0210085,39.5672131 C7.50073729,39.5672131 2.1970678,34.2462951 2.1970678,27.7071475 C2.1970678,21.4144918 7.10832203,16.2191148 13.3785,15.8810492 C13.9612881,15.8498361 14.418,15.3664918 14.418,14.7810164 C14.418,14.7587541 14.4170847,14.7371803 14.4161695,14.7156066 C14.4321864,7.82416393 20.0273644,2.22186885 26.9025254,2.22186885 C33.7786017,2.22186885 39.3737797,7.82508197 39.3881949,14.7183607 C39.3872797,14.7399344 39.3863644,14.7621967 39.3863644,14.7784918 C39.3863644,15.3655738 39.8449068,15.848918 40.4292966,15.8785246 C46.7209831,16.198459 51.6493983,21.3938361 51.6493983,27.7071475 C51.6493983,31.2922951 50.0566271,34.6479344 47.2804322,36.9124918 C46.8102203,37.2962295 46.7388305,37.9900328 47.1214068,38.4625902 C47.5046695,38.9342295 48.1966017,39.0058361 48.6665847,38.6211803 C51.9576102,35.9361639 53.845322,31.9583279 53.845322,27.7071475 C53.845322,20.5618689 48.522661,14.6233443 41.553,13.7663607 Z" id="Fill-1" fill="#AAB9C1" mask="url(#mask-2)"></path>
                            </g>
                            <path d="M25.8039915,19.7925574 L25.8039915,33.8400656 C25.8039915,34.4489508 26.2957119,34.9419344 26.9025254,34.9419344 C27.5086525,34.9419344 28.0001441,34.4489508 28.0001441,33.8400656 L28.0001441,19.7925574 C28.0001441,19.1839016 27.5086525,18.690918 26.9025254,18.690918 C26.2957119,18.690918 25.8039915,19.1839016 25.8039915,19.7925574 Z" id="Fill-4" fill="#AAB9C1"></path>
                            <path d="M33.1841441,21.8358689 C33.4648983,21.8358689 33.746339,21.7282295 33.9609661,21.5129508 C34.3899915,21.082623 34.3899915,20.3851475 33.9609661,19.9548197 L27.6793475,13.6541311 C27.250322,13.2238033 26.5549576,13.2238033 26.1259322,13.6541311 L19.8443136,19.9548197 C19.4152881,20.3851475 19.4152881,21.082623 19.8443136,21.5129508 C20.273339,21.9432787 20.9687034,21.9432787 21.3968136,21.5129508 L26.9025254,15.9914426 L32.4075508,21.5129508 C32.6219492,21.7282295 32.9027034,21.8358689 33.1841441,21.8358689 Z" id="Fill-5" fill="#AAB9C1"></path>
                        </g>
                    </g>
                </g>
            </g>
        </g>
    </g>
</svg>