<?xml version="1.0" encoding="UTF-8"?>
<svg width="27px" height="27px" viewBox="0 0 27 27" version="1.1" xmlns="http://www.w3.org/2000/svg" xmlns:xlink="http://www.w3.org/1999/xlink">
    <!-- Generator: Sketch 41.2 (35397) - http://www.bohemiancoding.com/sketch -->
    <title>edit</title>
    <desc>Created with Sketch.</desc>
    <defs>
        <polygon id="path-1" points="0.00409308511 0.039376492 0.00409308511 25.5820989 25.6135033 25.5820989 25.6135033 0.039376492 0.00409308511 0.039376492"></polygon>
    </defs>
    <g id="Page-1" stroke="none" stroke-width="1" fill="none" fill-rule="evenodd">
        <g id="my-quizes" transform="translate(-1317.000000, -282.000000)">
            <g id="1" transform="translate(375.000000, 259.000000)">
                <g id="edit" transform="translate(928.000000, 9.000000)">
                    <g transform="translate(14.850000, 14.850000)">
                        <mask id="mask-2" fill="white">
                            <use xlink:href="#path-1"></use>
                        </mask>
                        <g id="Clip-2"></g>
                        <path d="M23.9544395,1.69283196 C21.7495628,-0.511775332 18.1641566,-0.511775332 15.9592799,1.69283196 L1.30064601,16.3072767 C1.18583497,16.421511 1.11495638,16.5684712 1.09305838,16.7263854 L0.00716289894,24.7491883 C-0.0255817819,24.9777251 0.0562117021,25.2062618 0.214545878,25.364176 C0.350982048,25.5002503 0.541992686,25.5820989 0.733071543,25.5820989 C0.765611569,25.5820989 0.79835625,25.5820989 0.831169149,25.5765199 L5.6773137,24.9232273 C6.0813012,24.8690017 6.36508843,24.4988117 6.31044574,24.0958958 C6.25580306,23.693252 5.88490133,23.4102175 5.48091383,23.4647153 L1.59514348,23.9871724 L2.35379681,18.3916623 L8.25889069,24.2811609 C8.39532686,24.4172351 8.58613285,24.4988117 8.7772117,24.4988117 C8.96829056,24.4988117 9.15936941,24.422542 9.29580559,24.2811609 L23.9544395,9.66671618 C25.0240309,8.5998939 25.6135033,7.18472149 25.6135033,5.67695053 C25.6135033,4.16924761 25.0240309,2.75400716 23.9544395,1.69283196 Z M16.2430672,3.48887626 L18.7043074,5.94379218 L5.32817354,19.2843776 L2.86672859,16.8297338 L16.2430672,3.48887626 Z M8.78280559,22.7245393 L6.37600332,20.3241211 L19.752069,6.98326353 L22.1588713,9.3836817 L8.78280559,22.7245393 Z M23.1848031,8.33305225 L17.296218,2.46008674 C18.0439564,1.84509907 18.9771798,1.50756684 19.9596566,1.50756684 C21.0782968,1.50756684 22.1261266,1.94314058 22.9175246,2.72692838 C23.708718,3.51071618 24.1398562,4.56127759 24.1398562,5.67695053 C24.1398562,6.66219629 23.8016992,7.58756936 23.1848031,8.33305225 Z" id="Fill-1" fill="#AAB9C1" mask="url(#mask-2)"></path>
                    </g>
                </g>
            </g>
        </g>
    </g>
</svg>