<?xml version="1.0" encoding="UTF-8"?>
<svg width="27px" height="23px" viewBox="0 0 27 23" version="1.1" xmlns="http://www.w3.org/2000/svg" xmlns:xlink="http://www.w3.org/1999/xlink">
    <!-- Generator: Sketch 41.2 (35397) - http://www.bohemiancoding.com/sketch -->
    <title>heart (2)</title>
    <desc>Created with Sketch.</desc>
    <defs>
        <polygon id="path-1" points="0.0031640625 22.359375 27 22.359375 27 0.0427675781 0.0031640625 0.0427675781"></polygon>
    </defs>
    <g id="Page-1" stroke="none" stroke-width="1" fill="none" fill-rule="evenodd">
        <g id="my-quizes" transform="translate(-575.000000, -707.000000)">
            <g id="2" transform="translate(375.000000, 527.000000)">
                <g id="add-to-favorites" transform="translate(186.000000, 164.000000)">
                    <g id="heart">
                        <g id="heart-(2)" transform="translate(14.000000, 16.000000)">
                            <g id="Group-3">
                                <mask id="mask-2" fill="white">
                                    <use xlink:href="#path-1"></use>
                                </mask>
                                <g id="Clip-2"></g>
                                <path d="M7.74620508,1.11844336 C4.06808789,1.11844336 1.07567578,4.11085547 1.07567578,7.78897266 C1.07567578,12.4606055 5.12404102,15.4802285 7.54280859,17.2843242 L7.71261328,17.4109922 C10.2501387,19.306582 10.4612344,19.4292949 12.4803809,20.6037949 C12.7773281,20.7765527 13.1130352,20.9718281 13.5000527,21.1981641 C13.8870176,20.9717754 14.2227246,20.7765527 14.5197246,20.6037949 C16.5389238,19.4292949 16.7499668,19.3065293 19.2875449,17.4109922 L19.4572969,17.2843242 C21.875959,15.4802285 25.9243242,12.4606055 25.9243242,7.78897266 C25.9243242,4.11085547 22.9319121,1.11844336 19.2537949,1.11844336 C17.1440508,1.11844336 15.2032676,2.08532812 13.9290996,3.77098242 C13.8274277,3.90545508 13.6685918,3.98450391 13.5,3.98450391 C13.3314082,3.98450391 13.172625,3.90545508 13.0709004,3.77098242 C11.7967324,2.08527539 9.85594922,1.11844336 7.74620508,1.11844336 Z M13.5,22.359375 C13.4059219,22.359375 13.3118965,22.334748 13.2278906,22.2854941 C12.7246992,21.9904453 12.3030879,21.7451777 11.9394844,21.5337129 C9.87192773,20.3310527 9.65582227,20.2053867 7.06872656,18.2727773 L6.89955469,18.1465312 C5.65259766,17.2164551 3.94479492,15.9426035 2.54158594,14.2599023 C0.855140625,12.2374863 0,10.0602949 0,7.78897266 C0,3.51769922 3.47493164,0.0427675781 7.74620508,0.0427675781 C9.9699082,0.0427675781 12.0319277,0.967675781 13.5,2.60191406 C14.9680723,0.967675781 17.0300391,0.0427675781 19.2537949,0.0427675781 C23.5250684,0.0427675781 27,3.51769922 27,7.78897266 C27,10.0602949 26.1448594,12.2374336 24.4583613,14.2599551 C23.0551523,15.942709 21.3472969,17.2165078 20.1003926,18.146584 L19.9312207,18.2728301 C17.344125,20.2054395 17.1280195,20.3311055 15.0604629,21.5337656 C14.6968594,21.7452305 14.275248,21.990498 13.7720566,22.2855469 C13.6881035,22.334748 13.5940781,22.359375 13.5,22.359375 L13.5,22.359375 Z" id="Fill-1" fill="#63ADF2" mask="url(#mask-2)"></path>
                            </g>
                            <path d="M24.0054785,8.43966211 C23.7084258,8.43966211 23.4676406,8.19887695 23.4676406,7.90182422 C23.4676406,6.90129492 23.1360996,5.96199023 22.5089297,5.18547656 C22.3223027,4.95439453 22.3583203,4.61578711 22.5893496,4.42910742 C22.8204316,4.242375 23.1590918,4.27849805 23.3457715,4.50952734 C24.1180664,5.46570703 24.5433691,6.67042383 24.5433691,7.90177148 C24.5433164,8.19887695 24.3025313,8.43966211 24.0054785,8.43966211" id="Fill-4" fill="#63ADF2"></path>
                            <path d="M21.3258867,4.09255664 C21.2445176,4.09255664 21.162041,4.07404687 21.084416,4.0349707 C20.9077559,3.94600781 20.7234492,3.86859375 20.5365586,3.80494336 C20.2553789,3.70917773 20.1050332,3.40363477 20.2007988,3.12245508 C20.2965117,2.84122266 20.6020547,2.69092969 20.8833398,2.78664258 C21.1170059,2.86621875 21.3474023,2.96298633 21.5682539,3.07420312 C21.8336133,3.2077793 21.9402949,3.53119922 21.8067187,3.79645312 C21.7122187,3.98424023 21.5226387,4.09255664 21.3258867,4.09255664" id="Fill-5" fill="#63ADF2"></path>
                        </g>
                    </g>
                </g>
            </g>
        </g>
    </g>
</svg>