<?xml version="1.0" encoding="UTF-8"?>
<svg width="22px" height="30px" viewBox="0 0 22 30" version="1.1" xmlns="http://www.w3.org/2000/svg" xmlns:xlink="http://www.w3.org/1999/xlink">
    <!-- Generator: Sketch 41.2 (35397) - http://www.bohemiancoding.com/sketch -->
    <title>lock</title>
    <desc>Created with Sketch.</desc>
    <defs></defs>
    <g id="Page-1" stroke="none" stroke-width="1" fill="none" fill-rule="evenodd">
        <g id="my-quizes" transform="translate(-428.000000, -703.000000)" fill="#63ADF2">
            <g id="2" transform="translate(375.000000, 527.000000)">
                <g id="private" transform="translate(37.000000, 164.000000)">
                    <g id="lock">
                        <g transform="translate(16.200000, 12.150000)">
                            <path d="M11.8259947,20.1030715 C11.5445988,20.3682252 11.3832211,20.7388371 11.3832211,21.1199484 L11.3832211,23.7977051 C11.3832211,24.1286396 11.1140648,24.3977959 10.7831303,24.3977959 C10.4521957,24.3977959 10.1830395,24.1286396 10.1830395,23.7977051 L10.1830395,21.1199484 C10.1830395,20.7388371 10.0216617,20.3682252 9.74043984,20.1033035 C9.43276641,19.8130904 9.26326758,19.4200295 9.26326758,18.9965725 C9.26326758,18.1585336 9.94514941,17.4766518 10.7831883,17.4766518 C11.6212271,17.4766518 12.303109,18.1585336 12.303109,18.9965725 C12.302993,19.4200295 12.1334941,19.8130324 11.8259947,20.1030715 Z M10.7830723,16.0491955 C9.15792539,16.0491955 7.83569531,17.3713676 7.83569531,18.9965725 C7.83569531,19.802591 8.17069043,20.581984 8.7555252,21.1365387 L8.7555252,23.7976471 C8.7555252,24.9155736 9.6650877,25.8251361 10.7830723,25.8251361 C11.9009988,25.8251361 12.8105613,24.9155736 12.8105613,23.7976471 L12.8105613,21.1365387 C13.3952221,20.582274 13.7304492,19.802707 13.7304492,18.9965725 C13.7304492,17.3713676 12.4082771,16.0491955 10.7830723,16.0491955 L10.7830723,16.0491955 Z" id="Fill-1"></path>
                            <path d="M20.1386883,27.5588736 C20.1386883,27.9523986 19.8184852,28.2725437 19.4249602,28.2725437 L2.14112637,28.2725437 C1.74760137,28.2725437 1.42745625,27.9523986 1.42745625,27.5588736 L1.42745625,14.315632 C1.42745625,13.922049 1.74760137,13.6019039 2.14112637,13.6019039 L19.4249602,13.6019039 C19.8184852,13.6019039 20.1386883,13.922049 20.1386883,14.315632 L20.1386883,27.5588736 Z M19.4249602,12.1744477 L5.70959297,12.1744477 L5.70959297,6.50105156 C5.70959297,3.70345078 7.98547148,1.42745625 10.7830723,1.42745625 C13.580615,1.42745625 15.8566096,3.70345078 15.8566096,6.50105156 L15.8566096,9.06894141 C15.8566096,9.46310449 16.1761746,9.78261152 16.5702797,9.78261152 C16.9644428,9.78261152 17.2840078,9.46310449 17.2840078,9.06894141 L17.2840078,6.50105156 C17.2840078,2.91634277 14.367723,0 10.7830723,0 C7.19842148,0 4.28207871,2.91634277 4.28207871,6.50105156 L4.28207871,12.1744477 L2.14112637,12.1744477 C0.960551367,12.1744477 0,13.134999 0,14.315632 L0,27.5588736 C0,28.7394486 0.960551367,29.7 2.14112637,29.7 L19.4249602,29.7 C20.6055932,29.7 21.5661445,28.7394486 21.5661445,27.5588736 L21.5661445,14.315632 C21.5661445,13.134999 20.6055932,12.1744477 19.4249602,12.1744477 L19.4249602,12.1744477 Z" id="Fill-2"></path>
                        </g>
                    </g>
                </g>
            </g>
        </g>
    </g>
</svg>