<?xml version="1.0" encoding="UTF-8"?>
<svg width="43px" height="43px" viewBox="0 0 43 43" version="1.1" xmlns="http://www.w3.org/2000/svg" xmlns:xlink="http://www.w3.org/1999/xlink">
    <!-- Generator: Sketch 41.2 (35397) - http://www.bohemiancoding.com/sketch -->
    <title>user (2)</title>
    <desc>Created with Sketch.</desc>
    <defs>
        <polygon id="path-1" points="21.4916321 0.0426355932 0.0109322034 0.0426355932 0.0109322034 42.9998178 42.972332 42.9998178 42.972332 0.0426355932"></polygon>
    </defs>
    <g id="Page-1" stroke="none" stroke-width="1" fill="none" fill-rule="evenodd">
        <g id="start-quiz" transform="translate(-939.000000, -518.000000)">
            <g id="my-quizzes" transform="translate(775.000000, 488.000000)">
                <g id="user-(2)" transform="translate(164.000000, 30.000000)">
                    <mask id="mask-2" fill="white">
                        <use xlink:href="#path-1"></use>
                    </mask>
                    <g id="Clip-2"></g>
                    <path d="M36.6819153,6.3264661 C28.3034746,-2.05197458 14.6710169,-2.05197458 6.29239407,6.3264661 C3.35290678,9.26595339 1.34229237,12.9590339 0.477555085,17.0066822 C-0.36440678,20.9475593 -0.0889152542,25.0307373 1.27469492,28.8143729 C1.43849576,29.2684237 1.94010169,29.5040127 2.39433475,29.3402119 C2.84838559,29.1765932 3.08397458,28.6755339 2.92017373,28.2207542 C1.66752542,24.744678 1.41426271,20.9931102 2.18789831,17.3718178 C2.98139407,13.6552331 4.82911864,10.2636992 7.52937288,7.5627161 C15.2252797,-0.133190678 27.7483008,-0.133190678 35.4449364,7.5627161 C39.110322,11.2281017 41.1622966,16.1005847 41.2220593,21.2820847 C41.2825508,26.4542924 39.3544746,31.3652203 35.7951314,35.1102288 C35.7524958,35.1545042 35.7111356,35.1993263 35.6692288,35.2441483 C35.5958008,35.3230424 35.5218263,35.4021186 35.4449364,35.4790085 C27.7483008,43.1749153 15.2252797,43.1749153 7.52937288,35.4790085 C7.48819492,35.4376483 7.44829237,35.3964703 7.40911864,35.3543814 C7.4069322,35.2740297 7.40492797,35.1942246 7.40492797,35.1160593 C7.40492797,34.9395042 7.40838983,34.7644068 7.41476695,34.5893093 C7.41695339,34.5310042 7.42114407,34.4732458 7.42405932,34.4149407 C7.42970763,34.2988771 7.43553814,34.1822669 7.44391949,34.0669322 C7.44902119,33.9978771 7.45612712,33.9295508 7.46250424,33.8612246 C7.47179661,33.7566398 7.48036017,33.6526017 7.49165678,33.5487458 C7.49949153,33.4762288 7.51024153,33.4035297 7.5195339,33.3302839 C7.53155932,33.2320763 7.54358475,33.1331398 7.55779661,33.035661 C7.56927542,32.9609576 7.58202966,32.8868008 7.5949661,32.8128263 C7.60990678,32.7175339 7.62557627,32.6213305 7.64325,32.5267669 C7.65673305,32.4520636 7.67240254,32.377178 7.68807203,32.3024746 C7.70665678,32.2093686 7.72505932,32.1160805 7.74583051,32.0235212 C7.76277542,31.9488178 7.78136017,31.8741144 7.7992161,31.799411 C7.82126271,31.7083093 7.84258051,31.6172076 7.86608475,31.5266525 C7.88594492,31.4519492 7.90726271,31.3772458 7.9280339,31.3032712 C7.95281356,31.2136271 7.97777542,31.1245297 8.00419492,31.0356144 C8.02697034,30.9616398 8.05047458,30.8876653 8.07452542,30.8142373 C8.10240254,30.7267797 8.13009746,30.638411 8.15997881,30.5516822 C8.18494068,30.4784364 8.21117797,30.4057373 8.23759746,30.3324915 C8.26820763,30.2463093 8.29954661,30.1601271 8.33216102,30.0748559 C8.36003814,30.0021568 8.38846186,29.9303686 8.41761441,29.8583983 C8.45186864,29.7736737 8.48594068,29.6891314 8.52165254,29.6051356 C8.5515339,29.5338941 8.58269068,29.4626525 8.61402966,29.392322 C8.65101695,29.3090551 8.68891525,29.2257881 8.72717797,29.1437966 C8.75997458,29.0734661 8.7935,29.0036822 8.82757203,28.9338983 C8.86747458,28.8528178 8.90737712,28.7708263 8.9492839,28.6897458 C8.98426695,28.6214195 9.01979661,28.5530932 9.05605508,28.4854958 C9.09887288,28.4051441 9.14223729,28.3246102 9.18705932,28.2449873 C9.22477542,28.1781186 9.26249153,28.1110678 9.30093644,28.044928 C9.34648729,27.9660339 9.39349576,27.8876864 9.44032203,27.809339 C9.48022458,27.743928 9.52085593,27.6783347 9.56148729,27.6136525 C9.60977119,27.5360339 9.65969492,27.4591441 9.70943644,27.3829831 C9.75152542,27.3190297 9.79416102,27.2556229 9.83679661,27.1922161 C9.88817797,27.1160551 9.94083475,27.0413517 9.99422034,26.9666483 C10.0383136,26.9046992 10.0824068,26.8422034 10.1272288,26.7809831 C10.182072,26.7068263 10.2376441,26.6335805 10.2930339,26.5610636 C10.3393136,26.500572 10.3855932,26.4400805 10.4326017,26.3801356 C10.490178,26.3083475 10.5486653,26.2363771 10.6076992,26.1653178 C10.6552542,26.1068305 10.7029915,26.0485254 10.7521864,25.9909492 C10.812678,25.9204364 10.8746271,25.8499237 10.9358475,25.7808686 C10.985589,25.72475 11.0353305,25.6677203 11.0859831,25.6123305 C11.1492076,25.5432754 11.214072,25.475678 11.2787542,25.4078983 C11.3301356,25.3539661 11.3813347,25.2991229 11.4339915,25.2457373 C11.5001314,25.1788686 11.5684576,25.1125466 11.6360551,25.0464068 C11.6887119,24.9944788 11.7413686,24.9425508 11.7954831,24.8913517 C11.8652669,24.8257585 11.9365085,24.7610763 12.0075678,24.6969407 C12.0616822,24.647928 12.1150678,24.5980042 12.169911,24.5497203 C12.2431568,24.4848559 12.318589,24.422178 12.3934746,24.3589534 C12.4481356,24.3126737 12.50225,24.2656653 12.557822,24.2208432 C12.6354407,24.1574364 12.7143347,24.0954873 12.793411,24.0342669 C12.8489831,23.9909025 12.9029153,23.9468093 12.9584873,23.9047203 C13.0417542,23.8414958 13.1272076,23.7810042 13.2119322,23.7197839 C13.2653178,23.6806102 13.3179746,23.6414364 13.372089,23.6029915 C13.4651949,23.5375805 13.5613983,23.4741737 13.6566907,23.4102203 C13.7036992,23.3788814 13.7499788,23.3460847 13.7969873,23.3154746 C13.9214322,23.2343941 14.0482458,23.1560466 14.1756059,23.0791568 C14.1954661,23.0671314 14.2147797,23.0541949 14.2346398,23.0421695 C14.3827712,22.9539831 14.532178,22.8685297 14.6830424,22.7852627 C14.7349703,22.756839 14.7883559,22.7296907 14.8402839,22.7019958 C14.940678,22.6486102 15.041072,22.5944958 15.1434703,22.5432966 C15.2090636,22.5097712 15.2759322,22.479161 15.342072,22.4470932 C15.425339,22.4066441 15.5086059,22.3660127 15.5926017,22.326839 C17.177589,23.8414958 19.2922415,24.6983983 21.4872458,24.6983983 C23.68225,24.6983983 25.7967203,23.8407669 27.3824364,22.326839 C30.4764322,23.7589576 33.0094237,26.3282076 34.3845127,29.4535424 C34.5787415,29.8953856 35.0947415,30.0961737 35.5367669,29.9019449 C35.9787924,29.7068051 36.1793983,29.1908051 35.9851695,28.7487797 C34.4812627,25.3311907 31.8628178,22.5994153 28.5483559,20.9504746 C29.5098432,19.5396737 30.0300339,17.8743347 30.0300339,16.155428 C30.0300339,11.4452881 26.1981144,7.61245763 21.4872458,7.61245763 C21.004589,7.61245763 20.6124873,8.00401271 20.6124873,8.4872161 C20.6124873,8.96987288 21.004589,9.36197458 21.4872458,9.36197458 C25.2337119,9.36197458 28.281428,12.4096907 28.281428,16.155428 C28.281428,17.8309703 27.6586568,19.4436525 26.5284492,20.6970297 L26.5277203,20.6977585 C25.2373559,22.1289661 23.4003814,22.9496102 21.4872458,22.9496102 C19.5741102,22.9496102 17.7371356,22.1289661 16.4467712,20.6977585 L16.4460424,20.6970297 C15.3158347,19.4429237 14.6930636,17.8309703 14.6930636,16.155428 C14.6930636,14.3270169 15.4089407,12.6117542 16.7085975,11.3263093 C17.0524153,10.9861356 17.0551483,10.4324195 16.7157034,10.0893305 C16.3755297,9.74569492 15.8218136,9.74277966 15.4787246,10.0822246 C13.8445424,11.6992797 12.9442754,13.855839 12.9442754,16.155428 C12.9442754,17.8721483 13.4631907,19.5369407 14.4232203,20.9468305 C14.4146568,20.9512034 14.4060932,20.9553941 14.3977119,20.9595847 C14.3293856,20.993839 14.2630636,21.0300975 14.1947373,21.0650805 C14.0916102,21.1182839 13.9877542,21.1716695 13.8851737,21.2279703 C13.8132034,21.2671441 13.7421441,21.308322 13.6709025,21.3489534 C13.5756102,21.4030678 13.4794068,21.4564534 13.385572,21.5127542 C13.3121441,21.5561186 13.2403559,21.6009407 13.1683856,21.6450339 C13.0780127,21.7013347 12.9876398,21.7567246 12.8987246,21.8137542 C12.8262076,21.8607627 12.7542373,21.9083178 12.6822669,21.9567839 C12.5962669,22.0143602 12.5100847,22.0721186 12.4246314,22.1311525 C12.3528432,22.1810763 12.2823305,22.2322754 12.2118178,22.2827458 C12.1285508,22.3425085 12.0460127,22.403 11.9642034,22.4642203 C11.8936907,22.5168771 11.8246356,22.5702627 11.7557627,22.6236483 C11.6752288,22.6863263 11.5956059,22.7490042 11.5172585,22.8122288 C11.4489322,22.8678008 11.3813347,22.9233729 11.3137373,22.9794915 C11.2368475,23.0443559 11.1599576,23.1097669 11.0837966,23.1759068 C11.0176568,23.2329364 10.9520636,23.2905127 10.8873814,23.349 C10.8119492,23.4165975 10.7379746,23.4849237 10.6645466,23.5539788 C10.6005932,23.6130127 10.5371864,23.6727754 10.4745085,23.7332669 C10.4019915,23.8030508 10.3300212,23.874839 10.2589619,23.9460805 C10.1977415,24.0073008 10.13725,24.0685212 10.0774873,24.1304703 C10.0069746,24.2037161 9.93719068,24.2776907 9.86813559,24.3523941 C9.80983051,24.415072 9.75207203,24.4770212 9.69522458,24.540428 C9.62544068,24.6173178 9.55857203,24.6962119 9.49097458,24.7745593 C9.43613136,24.8372373 9.38128814,24.8997331 9.32790254,24.9631398 C9.25957627,25.045678 9.19343644,25.1289449 9.1265678,25.2122119 C9.07664407,25.2748898 9.02544492,25.3361102 8.97716102,25.3987881 C8.90664831,25.489161 8.83905085,25.5809915 8.77072458,25.672822 C8.72790678,25.7311271 8.68381356,25.7872458 8.64190678,25.8457331 C8.55572458,25.9652585 8.47172881,26.0862415 8.38919068,26.2086822 C8.36714407,26.24075 8.34436864,26.272089 8.32305085,26.3039746 C8.21974153,26.4577542 8.11934746,26.6137203 8.02186864,26.7709619 C7.98852542,26.8250763 7.95645763,26.8804661 7.92366102,26.9353093 C7.86043644,27.0398941 7.79702966,27.144661 7.73653814,27.2514322 C7.69882203,27.317572 7.66256356,27.3851695 7.62612288,27.4520381 C7.57273729,27.5482415 7.5195339,27.6442627 7.46815254,27.7417415 C7.43043644,27.8137119 7.39417797,27.8869576 7.35791949,27.9594746 C7.3101822,28.0534915 7.26244492,28.1467797 7.21689407,28.242072 C7.18063559,28.3175042 7.14583475,28.3936653 7.11085169,28.4698263 C7.06748729,28.5631144 7.02412288,28.6569492 6.98276271,28.7516949 C6.94869068,28.8293136 6.91589407,28.9082076 6.88309746,28.9865551 C6.84392373,29.0813008 6.8049322,29.1751356 6.7672161,29.2706102 C6.73514831,29.3502331 6.70526695,29.4307669 6.67465678,29.5111186 C6.63912712,29.606411 6.60341525,29.7018856 6.56934322,29.7979068 C6.54073729,29.8791695 6.51231356,29.9609788 6.48461864,30.0435169 C6.45255085,30.1395381 6.42048305,30.2362881 6.38987288,30.3332203 C6.36436441,30.4164873 6.33867373,30.4990254 6.31371186,30.5822924 C6.28455932,30.6805 6.25686441,30.7787076 6.2297161,30.8776441 C6.20621186,30.960911 6.18361864,31.044178 6.16211864,31.1281737 C6.13661017,31.2285678 6.11164831,31.3282331 6.08814407,31.4291737 C6.0682839,31.5131695 6.04824153,31.5964364 6.02983898,31.681161 C6.00706356,31.7830127 5.98629237,31.885411 5.96570339,31.9879915 C5.94930508,32.0719873 5.93236017,32.1559831 5.91669068,32.2405254 C5.89737712,32.3452924 5.88025,32.4506059 5.86330508,32.5559195 C5.84963983,32.6384576 5.83542797,32.7217246 5.82340254,32.8049915 C5.80773305,32.9139492 5.79425,33.0227246 5.78076695,33.132411 C5.77074576,33.2134915 5.75926695,33.2947542 5.75070339,33.3758347 C5.73794915,33.4904407 5.72865678,33.6057754 5.7188178,33.720928 C5.71171186,33.7978178 5.70387712,33.8739788 5.69804661,33.9515975 C5.68893644,34.0804153 5.68255932,34.2092331 5.67672881,34.3387797 C5.67326695,34.4036441 5.66889407,34.4668686 5.66616102,34.5317331 C5.65905508,34.7259619 5.65541102,34.9201907 5.65541102,35.1160593 C5.65541102,35.3274153 5.66251695,35.5274746 5.67108051,35.7473941 C5.67326695,35.7985932 5.68037288,35.8483347 5.69021186,35.8968008 C5.69094068,35.9002627 5.69166949,35.9039068 5.69239831,35.9080975 C5.70314831,35.9558347 5.7188178,36.0013856 5.73649153,36.0454788 C5.73867797,36.0498517 5.74013559,36.0540424 5.74232203,36.0589619 C5.76072458,36.1025085 5.7835,36.1444153 5.80846186,36.183589 C5.81192373,36.1885085 5.81483898,36.1936102 5.81848305,36.1985297 C5.84399153,36.2377034 5.87314407,36.2739619 5.90448305,36.3082161 C5.90739831,36.3109492 5.90885593,36.3138644 5.91086017,36.3160508 L6.02619492,36.4390381 C6.11383475,36.5323263 6.20056356,36.6256144 6.29166525,36.7159873 C10.4808856,40.9052076 15.9841568,42.9998178 21.4865169,42.9998178 C26.9896059,42.9998178 32.4919661,40.9052076 36.6811864,36.7159873 C36.7722881,36.6256144 36.8591992,36.5323263 36.9466568,36.4390381 L37.0619915,36.3160508 C40.9381864,32.23925 43.0362585,26.8934025 42.9708475,21.2627712 C42.9052542,15.6210254 40.6719873,10.3163559 36.6819153,6.3264661 Z" id="Fill-1" fill="#63ADF2" mask="url(#mask-2)"></path>
                </g>
            </g>
        </g>
    </g>
</svg>