<?xml version="1.0" encoding="UTF-8"?>
<svg width="22px" height="22px" viewBox="0 0 40 40" version="1.1" xmlns="http://www.w3.org/2000/svg" xmlns:xlink="http://www.w3.org/1999/xlink">
    <!-- Generator: Sketch 41.2 (35397) - http://www.bohemiancoding.com/sketch -->
    <title>plus</title>
    <desc>Created with Sketch.</desc>
    <defs>
        <polygon id="path-1" points="19.9944915 0.0212658228 0.0101694915 0.0212658228 0.0101694915 39.8313924 39.9788136 39.8313924 39.9788136 0.0212658228"></polygon>
    </defs>
    <g id="Page-1" stroke="none" stroke-width="1" fill="none" fill-rule="evenodd">
        <g id="quiz-overview" transform="translate(-940.000000, -525.000000)">
            <g id="add-question" transform="translate(375.000000, 496.000000)">
                <g id="plus" transform="translate(565.000000, 29.000000)">
                    <g id="Group-3">
                        <mask id="mask-2" fill="white">
                            <use xlink:href="#path-1"></use>
                        </mask>
                        <g id="Clip-2"></g>
                        <path d="M19.9894915,0.0212658228 C8.96711864,0.0212658228 0,8.9507173 0,19.9264135 C0,30.9021097 8.96711864,39.8313924 19.9894915,39.8313924 C25.180678,39.8313924 30.1,37.858903 33.8413559,34.276962 C34.1650847,33.9670886 34.1757627,33.4541772 33.8638983,33.1318143 C33.5527119,32.8094515 33.0376271,32.7988186 32.7138983,33.108692 C29.2769492,36.3991561 24.7583051,38.2109705 19.9894915,38.2109705 C9.86423729,38.2109705 1.62745763,30.0087764 1.62745763,19.9264135 C1.62745763,9.84405063 9.86423729,1.64185654 19.9894915,1.64185654 C30.1138983,1.64185654 38.3513559,9.84405063 38.3513559,19.9264135 C38.3513559,22.2003376 37.9376271,24.4187342 37.1213559,26.5198312 C36.959661,26.9372152 37.1676271,27.4065823 37.5867797,27.5681013 C38.0057627,27.7289451 38.4772881,27.5220253 38.6394915,27.1046414 C39.5279661,24.8163713 39.9788136,22.4006751 39.9788136,19.9264135 C39.9788136,8.9507173 31.0116949,0.0212658228 19.9894915,0.0212658228 Z" id="Fill-1" fill="#ffffff" mask="url(#mask-2)"></path>
                    </g>
                    <g id="Group" transform="translate(20.000000, 20.000000) rotate(45.000000) translate(-20.000000, -20.000000) translate(10.000000, 10.000000)" fill="#ffffff">
                        <path d="M12.7277966,11.6425316 C12.4066102,11.3299578 11.8915254,11.3353586 11.5777966,11.6550211 C11.2632203,11.9748523 11.2684746,12.4877637 11.589661,12.8008439 L17.9945763,19.0435443 C18.1528814,19.1978059 18.3579661,19.2744304 18.5638983,19.2744304 C18.7745763,19.2744304 18.9857627,19.1932489 19.1452542,19.0310549 C19.4591525,18.7113924 19.4537288,18.198481 19.1327119,17.8852321 L12.7277966,11.6425316 Z" id="Fill-4"></path>
                        <path d="M6.97305085,8.06852321 C7.13186441,8.22683544 7.34050847,8.30582278 7.54830508,8.30582278 C7.75694915,8.30582278 7.96474576,8.22683544 8.12372881,8.06852321 C8.44152542,7.75206751 8.44152542,7.23915612 8.12372881,6.92270042 L1.99016949,0.815189873 C1.67237288,0.498734177 1.15728814,0.498734177 0.839491525,0.815189873 C0.521694915,1.13164557 0.521694915,1.64455696 0.839491525,1.96101266 L6.97305085,8.06852321 Z" id="Fill-5"></path>
                        <path d="M19.139322,0.815189873 C18.8215254,0.498734177 18.3057627,0.498734177 17.9886441,0.815189873 L0.839491525,17.8918143 C0.521694915,18.20827 0.521694915,18.7211814 0.839491525,19.0376371 C0.998474576,19.1952743 1.20694915,19.2744304 1.41491525,19.2744304 C1.62338983,19.2744304 1.83135593,19.1952743 1.99016949,19.0376371 L19.139322,1.96101266 C19.4564407,1.64455696 19.4564407,1.13164557 19.139322,0.815189873 Z" id="Fill-6"></path>
                    </g>
                </g>
            </g>
        </g>
    </g>
</svg>