<?xml version="1.0" encoding="UTF-8"?>
<svg width="43px" height="43px" viewBox="0 0 43 43" version="1.1" xmlns="http://www.w3.org/2000/svg" xmlns:xlink="http://www.w3.org/1999/xlink">
    <!-- Generator: Sketch 41.2 (35397) - http://www.bohemiancoding.com/sketch -->
    <title>unlock-lock</title>
    <desc>Created with Sketch.</desc>
    <defs>
        <polygon id="path-1" points="42.8443853 0.0694336842 0 0.0694336842 0 21.4894989 0 42.9095642 42.8443853 42.9095642 42.8443853 0.0694336842"></polygon>
    </defs>
    <g id="Page-1" stroke="none" stroke-width="1" fill="none" fill-rule="evenodd">
        <g id="start-quiz" transform="translate(-939.000000, -680.000000)">
            <g id="public" transform="translate(775.000000, 650.000000)">
                <g id="unlock-lock" transform="translate(164.000000, 30.000000)">
                    <g id="Group-3">
                        <mask id="mask-2" fill="white">
                            <use xlink:href="#path-1"></use>
                        </mask>
                        <g id="Clip-2"></g>
                        <path d="M39.1508211,16.3163726 L35.4573474,16.3163726 L33.9798674,16.3163726 L8.86451789,16.3163726 L8.86451789,14.1002884 C8.86451789,9.15103368 11.7747579,4.65975158 16.2954611,2.63594526 C20.8164358,0.611867368 26.1055263,1.43936842 29.7990905,4.73362105 C30.1092337,4.99958737 30.5671158,4.98510316 30.8479284,4.67459789 C31.1138042,4.36445474 31.0989579,3.90648211 30.7888147,3.62576 C26.6666989,-0.0381115789 20.7425663,-0.969174737 15.6900211,1.29153895 C10.6520505,3.53695368 7.38712842,8.57501474 7.38712842,14.1002884 L7.38712842,16.3163726 L3.69356421,16.3163726 C1.65454947,16.3163726 0,17.9710126 0,20.0099368 L0,39.216 C0,41.2546526 1.65454947,42.9095642 3.69356421,42.9095642 L39.1508211,42.9095642 C41.1894737,42.9095642 42.8443853,41.2546526 42.8443853,39.216 L42.8443853,20.0099368 C42.8443853,17.9710126 41.1894737,16.3163726 39.1508211,16.3163726 Z M41.3669958,39.216 C41.3669958,40.44236 40.3771811,41.4321747 39.1508211,41.4321747 L3.69356421,41.4321747 C2.46720421,41.4321747 1.47738947,40.44236 1.47738947,39.216 L1.47738947,20.0099368 C1.47738947,18.7835768 2.46720421,17.7938526 3.69356421,17.7938526 L39.1508211,17.7938526 C40.3771811,17.7938526 41.3669958,18.7835768 41.3669958,20.0099368 L41.3669958,39.216 Z" id="Fill-1" fill="#63ADF2" mask="url(#mask-2)"></path>
                    </g>
                    <path d="M21.4222379,20.7486316 C19.2948695,20.7486316 17.3595074,22.0782821 16.5910295,24.0726674 C15.8671811,25.9786989 16.3251537,28.1060674 17.7138274,29.3914505 L17.7138274,34.7837411 C17.7138274,36.0989074 18.4231916,37.3249053 19.5607453,37.98964 C20.1219179,38.3146295 20.7574126,38.4773053 21.4073916,38.4773053 C22.05728,38.4773053 22.6927747,38.3001453 23.2539474,37.98964 C24.3915011,37.3249053 25.1008653,36.1133916 25.1008653,34.7985874 L25.1008653,29.4062968 C26.4895389,28.1209137 26.9623579,25.9935453 26.2236632,24.0875137 C25.4849684,22.0782821 23.5496063,20.7486316 21.4222379,20.7486316 Z M23.9336189,28.4607495 C23.7564589,28.5936421 23.6528063,28.8150695 23.6528063,29.0516147 L23.6528063,34.7985874 C23.6528063,35.5815495 23.2246168,36.3202442 22.5449453,36.7191032 C21.8652737,37.1031158 21.0084421,37.1031158 20.3287705,36.7191032 C19.6491895,36.3202442 19.2209095,35.5963958 19.2209095,34.7985874 L19.2209095,29.0516147 C19.2209095,28.8299158 19.1173474,28.6082168 18.9401874,28.4607495 C17.8468105,27.6035558 17.4478611,26.0228758 17.9945495,24.5900253 C18.5412379,23.1716589 19.9299116,22.2261116 21.4370842,22.2261116 C22.9586505,22.2261116 24.3473242,23.1716589 24.8791663,24.5900253 C25.4110084,26.0228758 25.0269958,27.6035558 23.9336189,28.4607495 Z" id="Fill-4" fill="#63ADF2"></path>
                </g>
            </g>
        </g>
    </g>
</svg>