<?xml version="1.0" encoding="UTF-8"?>
<svg width="22px" height="22px" viewBox="0 0 22 22" version="1.1" xmlns="http://www.w3.org/2000/svg" xmlns:xlink="http://www.w3.org/1999/xlink">
    <!-- Generator: Sketch 41.2 (35397) - http://www.bohemiancoding.com/sketch -->
    <title>question</title>
    <desc>Created with Sketch.</desc>
    <defs>
        <polygon id="path-1" points="10.9969703 0.0116962025 0.00559322034 0.0116962025 0.00559322034 21.9072658 21.9883475 21.9072658 21.9883475 0.0116962025"></polygon>
        <polygon id="path-3" points="3.48900781 0.0348565737 0.018375 0.0348565737 0.018375 12.9763825 6.95964063 12.9763825 6.95964063 0.0348565737"></polygon>
    </defs>
    <g id="Page-1" stroke="none" stroke-width="1" fill="none" fill-rule="evenodd">
        <g id="empty-state-for-no-image" transform="translate(-1117.000000, -226.000000)">
            <g id="cover-img" transform="translate(1117.000000, 226.000000)">
                <g id="title">
                    <g id="question">
                        <g id="Group-3">
                            <mask id="mask-2" fill="white">
                                <use xlink:href="#path-1"></use>
                            </mask>
                            <g id="Clip-2"></g>
                            <path d="M10.9942203,0.0116962025 C4.93191525,0.0116962025 0,4.92289451 0,10.9595274 C0,16.9961603 4.93191525,21.9072658 10.9942203,21.9072658 C13.8493729,21.9072658 16.555,20.8223966 18.6127458,18.8523291 C18.7907966,18.6818987 18.7966695,18.3997975 18.6251441,18.2224979 C18.4539915,18.0451983 18.1706949,18.0393502 17.9926441,18.2097806 C16.102322,20.0195359 13.6170678,21.0160338 10.9942203,21.0160338 C5.42533051,21.0160338 0.895101695,16.504827 0.895101695,10.9595274 C0.895101695,5.41422785 5.42533051,0.903021097 10.9942203,0.903021097 C16.5626441,0.903021097 21.0932458,5.41422785 21.0932458,10.9595274 C21.0932458,12.2101857 20.8656949,13.4303038 20.4167458,14.5859072 C20.3278136,14.8154684 20.4421949,15.0736203 20.6727288,15.1624557 C20.9031695,15.2509198 21.1625085,15.1371139 21.2517203,14.9075527 C21.7403814,13.6490042 21.9883475,12.3203713 21.9883475,10.9595274 C21.9883475,4.92289451 17.0564322,0.0116962025 10.9942203,0.0116962025 Z" id="Fill-1" fill="#263238" mask="url(#mask-2)"></path>
                        </g>
                        <g id="circular-question-mark-button" transform="translate(8.000000, 5.000000)">
                            <mask id="mask-4" fill="white">
                                <use xlink:href="#path-3"></use>
                            </mask>
                            <g id="Clip-2"></g>
                            <path d="M4.05201563,12.3126056 C4.05201563,12.6783665 3.73734375,12.9763825 3.35108594,12.9763825 C2.96488281,12.9763825 2.65021094,12.6783665 2.65021094,12.3126056 C2.65021094,11.9467928 2.96510156,11.6487769 3.35108594,11.6487769 C3.73411719,11.6487769 4.05201563,11.947 4.05201563,12.3126056 Z M6.95964063,3.283251 C6.95964063,4.44491235 6.25871094,5.50832271 4.96075781,6.23663347 C4.01313281,6.76833865 4.04878906,7.39834661 4.04878906,7.43232271 L4.04878906,9.02738645 C4.04878906,9.35917131 3.76982813,9.6236255 3.41922656,9.6236255 C3.06867969,9.6236255 2.75400781,9.35917131 2.75400781,9.02738645 L2.75400781,7.53368127 C2.71835156,7.0019761 3.00075781,5.97238645 4.25988281,5.2440757 C4.88939063,4.87826295 5.62597656,4.24825498 5.62597656,3.32023108 C5.62597656,2.19233865 4.64586719,1.26110359 3.45171094,1.26110359 C2.25755469,1.26110359 1.27744531,2.18912749 1.27744531,3.32023108 C1.27744531,3.65206773 0.998484375,3.91647012 0.6479375,3.91647012 C0.297554688,3.91647012 0.018375,3.65206773 0.018375,3.32023108 C0.018375,1.49453386 1.55985156,0.0348565737 3.48742188,0.0348565737 C5.4149375,0.0348565737 6.95964063,1.45776096 6.95964063,3.283251 Z" id="Fill-1" fill="#263238" mask="url(#mask-4)"></path>
                        </g>
                    </g>
                </g>
            </g>
        </g>
    </g>
</svg>