<?xml version="1.0" encoding="UTF-8"?>
<svg width="43px" height="43px" viewBox="0 0 43 43" version="1.1" xmlns="http://www.w3.org/2000/svg" xmlns:xlink="http://www.w3.org/1999/xlink">
    <!-- Generator: Sketch 41.2 (35397) - http://www.bohemiancoding.com/sketch -->
    <title>question</title>
    <desc>Created with Sketch.</desc>
    <defs>
        <polygon id="path-1" points="21.4940784 0.0228607595 0.0109322034 0.0228607595 0.0109322034 42.8187468 42.9772246 42.8187468 42.9772246 0.0228607595"></polygon>
        <polygon id="path-3" points="0.00361904762 30.1764706 18.9966825 30.1764706 18.9966825 0 0.00361904762 0"></polygon>
    </defs>
    <g id="Page-1" stroke="none" stroke-width="1" fill="none" fill-rule="evenodd">
        <g id="start-quiz" transform="translate(-789.000000, -194.000000)">
            <g id="create-quiz" transform="translate(676.000000, 164.000000)">
                <g id="question" transform="translate(113.000000, 30.000000)">
                    <g id="Group-3">
                        <mask id="mask-2" fill="white">
                            <use xlink:href="#path-1"></use>
                        </mask>
                        <g id="Clip-2"></g>
                        <path d="M21.4887034,0.0228607595 C9.63965254,0.0228607595 0,9.6220211 0,21.4208945 C0,33.2197679 9.63965254,42.8187468 21.4887034,42.8187468 C27.0692288,42.8187468 32.3575,40.6983207 36.3794576,36.8477342 C36.7274661,36.5146203 36.7389449,35.9632405 36.4036907,35.6167004 C36.0691653,35.2701603 35.5154492,35.25873 35.1674407,35.5918439 C31.4727203,39.1290928 26.615178,41.0767932 21.4887034,41.0767932 C10.6040551,41.0767932 1.74951695,32.2594346 1.74951695,21.4208945 C1.74951695,10.5823544 10.6040551,1.76499578 21.4887034,1.76499578 C32.3724407,1.76499578 41.2277076,10.5823544 41.2277076,21.4208945 C41.2277076,23.8653629 40.7829492,26.2501392 39.9054576,28.5088186 C39.7316356,28.9575063 39.9551992,29.4620759 40.4057881,29.6357089 C40.8561949,29.808616 41.3630847,29.5861772 41.5374534,29.1374895 C42.4925636,26.6775992 42.9772246,24.0807257 42.9772246,21.4208945 C42.9772246,9.6220211 33.337572,0.0228607595 21.4887034,0.0228607595 Z" id="Fill-1" fill="#63ADF2" mask="url(#mask-2)"></path>
                    </g>
                    <g id="question-mark" transform="translate(12.000000, 6.000000)">
                        <g id="Group-4">
                            <mask id="mask-4" fill="white">
                                <use xlink:href="#path-3"></use>
                            </mask>
                            <g id="Clip-2"></g>
                            <path d="M9.53148571,26.4841554 C8.82896825,26.4841554 8.2574,27.0426559 8.2574,27.7291706 C8.2574,28.4156853 8.82896825,28.9742447 9.53148571,28.9742447 C10.2340635,28.9742447 10.8056317,28.4157443 10.8056317,27.7292295 C10.8056317,27.0427738 10.2340635,26.4841554 9.53148571,26.4841554 Z M9.53148571,30.1764706 C8.15051746,30.1764706 7.02698413,29.0786247 7.02698413,27.7292295 C7.02698413,26.3798344 8.15051746,25.2819885 9.53148571,25.2819885 C10.9125143,25.2819885 12.0359873,26.3798344 12.0359873,27.7292295 C12.0359873,29.0786247 10.9125143,30.1764706 9.53148571,30.1764706 L9.53148571,30.1764706 Z" id="Fill-1" fill="#63ADF2" mask="url(#mask-4)"></path>
                            <path d="M9.49837143,3.70074334 C12.6473651,3.70074334 15.2093492,6.20415269 15.2093492,9.28120967 C15.2093492,12.3582077 12.6473651,14.8615581 9.49837143,14.8615581 C8.79338095,14.8615581 8.21988254,15.4220036 8.21988254,16.1108169 L8.21988254,21.83026 C8.21988254,22.5191322 8.79338095,23.0795187 9.49837143,23.0795187 C10.2033016,23.0795187 10.7768603,22.5191322 10.7768603,21.83026 L10.7768603,17.7626839 C10.7768603,17.4800742 10.978381,17.2355977 11.2610286,17.1753626 C15.0304476,16.3726213 17.766327,13.0525612 17.766327,9.28115074 C17.766327,4.8264082 14.057346,1.20222587 9.49837143,1.20222587 C4.93933651,1.20222587 1.23035556,4.8264082 1.23035556,9.28120967 C1.23035556,9.97002298 1.80391429,10.5304684 2.50884444,10.5304684 C3.21383492,10.5304684 3.78733333,9.97002298 3.78733333,9.28120967 C3.78733333,6.20415269 6.34931746,3.70074334 9.49837143,3.70074334 Z M9.49837143,24.2818035 C8.11499048,24.2818035 6.98946667,23.1820126 6.98946667,21.83026 L6.98946667,16.1108169 C6.98946667,14.7590642 8.11499048,13.6592733 9.49837143,13.6592733 C11.9689746,13.6592733 13.9789937,11.6953273 13.9789937,9.28115074 C13.9789937,6.86697415 11.9689746,4.90302815 9.49837143,4.90302815 C7.02776825,4.90302815 5.01774921,6.86703309 5.01774921,9.28120967 C5.01774921,10.6329623 3.8922254,11.7326943 2.50884444,11.7326943 C1.12546349,11.7326943 0,10.6329623 0,9.28120967 C0,4.1635278 4.26094603,0 9.49837143,0 C14.7357968,0 18.9966825,4.1635278 18.9966825,9.28120967 C18.9966825,11.4092402 18.2380095,13.4899432 16.8602984,15.1399243 C15.6082889,16.6393177 13.8995556,17.7253759 12.0072159,18.233543 L12.0072159,21.83026 C12.0072159,23.1820716 10.8817524,24.2818035 9.49837143,24.2818035 L9.49837143,24.2818035 Z" id="Fill-3" fill="#63ADF2" mask="url(#mask-4)"></path>
                        </g>
                        <path d="M9.49837143,22.3618256 C9.15860317,22.3618256 8.88313333,22.0927128 8.88313333,21.7607127 L8.88313333,18.2742105 C8.88313333,17.9422104 9.15860317,17.6730975 9.49837143,17.6730975 C9.83813968,17.6730975 10.1135492,17.9422104 10.1135492,18.2742105 L10.1135492,21.7607127 C10.1135492,22.0927128 9.83813968,22.3618256 9.49837143,22.3618256" id="Fill-5" fill="#63ADF2"></path>
                        <path d="M9.49837143,17.2522772 C9.15860317,17.2522772 8.88313333,16.9831644 8.88313333,16.6511643 L8.88313333,16.1101685 C8.88313333,15.7781684 9.15860317,15.5089967 9.49837143,15.5089967 C9.83813968,15.5089967 10.1135492,15.7781684 10.1135492,16.1101685 L10.1135492,16.6511643 C10.1135492,16.9831644 9.83813968,17.2522772 9.49837143,17.2522772" id="Fill-6" fill="#63ADF2"></path>
                    </g>
                </g>
            </g>
        </g>
    </g>
</svg>