<?xml version="1.0" encoding="UTF-8"?>
<svg width="34px" height="33px" viewBox="0 0 34 33" version="1.1" xmlns="http://www.w3.org/2000/svg" xmlns:xlink="http://www.w3.org/1999/xlink">
    <!-- Generator: Sketch 41.2 (35397) - http://www.bohemiancoding.com/sketch -->
    <title>question</title>
    <desc>Created with Sketch.</desc>
    <defs>
        <polygon id="path-1" points="16.539656 0 0 0 0 32.9481179 33.079312 32.9481179 33.079312 0"></polygon>
        <polygon id="path-3" points="0.002786268 23.2325581 14.6253529 23.2325581 14.6253529 0 0.002786268 0"></polygon>
    </defs>
    <g id="Page-1" stroke="none" stroke-width="1" fill="none" fill-rule="evenodd">
        <g id="my-quizes" transform="translate(-575.000000, -332.000000)">
            <g id="1" transform="translate(375.000000, 259.000000)">
                <g id="question" transform="translate(200.000000, 73.000000)">
                    <g id="Group-3">
                        <mask id="mask-2" fill="white">
                            <use xlink:href="#path-1"></use>
                        </mask>
                        <g id="Clip-2"></g>
                        <path d="M16.5439344,0.0176002665 C7.42147056,0.0176002665 0,7.40789629 0,16.4917291 C0,25.5755618 7.42147056,32.9657182 16.5439344,32.9657182 C20.8403243,32.9657182 24.9117105,31.3332236 28.0081748,28.3686962 C28.276103,28.1122352 28.2849405,27.6877335 28.0268316,27.4209358 C27.7692839,27.1541381 27.3429835,27.145338 27.0750553,27.401799 C24.2305277,30.1250911 20.4907551,31.6246058 16.5439344,31.6246058 C8.16395428,31.6246058 1.34693533,24.836211 1.34693533,16.4917291 C1.34693533,8.14724717 8.16395428,1.35885232 16.5439344,1.35885232 C24.9232132,1.35885232 31.7407933,8.14724717 31.7407933,16.4917291 C31.7407933,18.3737004 31.3983782,20.2097155 30.7228064,21.9486498 C30.5889826,22.2940899 30.7611019,22.682553 31.1080058,22.8162312 C31.4547694,22.9493507 31.8450187,22.7780973 31.9792634,22.4326571 C32.714593,20.5388126 33.0877286,18.5395061 33.0877286,16.4917291 C33.0877286,7.40789629 25.666258,0.0176002665 16.5439344,0.0176002665 Z" id="Fill-1" fill="#263238" mask="url(#mask-2)"></path>
                    </g>
                    <g id="question-mark" transform="translate(9.238678, 4.619339)">
                        <g id="Group-4">
                            <mask id="mask-4" fill="white">
                                <use xlink:href="#path-3"></use>
                            </mask>
                            <g id="Clip-2"></g>
                            <path d="M7.33819402,20.3898822 C6.79733296,20.3898822 6.35728837,20.8198661 6.35728837,21.3484067 C6.35728837,21.8769474 6.79733296,22.3069767 7.33819402,22.3069767 C7.87910151,22.3069767 8.31914611,21.8769928 8.31914611,21.3484521 C8.31914611,20.8199568 7.87910151,20.3898822 7.33819402,20.3898822 Z M7.33819402,23.2325581 C6.27500059,23.2325581 5.41000369,22.3873377 5.41000369,21.3484521 C5.41000369,20.3095665 6.27500059,19.4643461 7.33819402,19.4643461 C8.40143389,19.4643461 9.26638435,20.3095665 9.26638435,21.3484521 C9.26638435,22.3873377 8.40143389,23.2325581 7.33819402,23.2325581 L7.33819402,23.2325581 Z" id="Fill-1" fill="#263238" mask="url(#mask-4)"></path>
                            <path d="M7.31269967,2.8491647 C9.73707789,2.8491647 11.7095234,4.77651413 11.7095234,7.14550904 C11.7095234,9.51445858 9.73707789,11.4417626 7.31269967,11.4417626 C6.76993466,11.4417626 6.32840406,11.8732439 6.32840406,12.4035542 L6.32840406,16.8068954 C6.32840406,17.3372511 6.76993466,17.768687 7.31269967,17.768687 C7.85541824,17.768687 8.29699528,17.3372511 8.29699528,16.8068954 L8.29699528,13.6753099 C8.29699528,13.4577316 8.45214396,13.2695115 8.6697515,13.2231372 C11.5717889,12.6051148 13.6781147,10.0490343 13.6781147,7.14546366 C13.6781147,3.71580264 10.8226079,0.925581486 7.31269967,0.925581486 C3.802745,0.925581486 0.947238243,3.71580264 0.947238243,7.14550904 C0.947238243,7.6758194 1.38881528,8.10730064 1.93153385,8.10730064 C2.47429886,8.10730064 2.91582946,7.6758194 2.91582946,7.14550904 C2.91582946,4.77651413 4.88827501,2.8491647 7.31269967,2.8491647 Z M7.31269967,18.6943139 C6.24764873,18.6943139 5.38111938,17.847596 5.38111938,16.8068954 L5.38111938,12.4035542 C5.38111938,11.3628536 6.24764873,10.5161358 7.31269967,10.5161358 C9.21479195,10.5161358 10.7622852,9.00411369 10.7622852,7.14546366 C10.7622852,5.28681364 9.21479195,3.77479156 7.31269967,3.77479156 C5.41060738,3.77479156 3.86311414,5.28685901 3.86311414,7.14550904 C3.86311414,8.18620967 2.99658479,9.03288213 1.93153385,9.03288213 C0.866482909,9.03288213 0,8.18620967 0,7.14550904 C0,3.20545776 3.28045906,0 7.31269967,0 C11.3449403,0 14.6253529,3.20545776 14.6253529,7.14550904 C14.6253529,8.78385815 14.0412583,10.3857703 12.9805725,11.6560739 C12.016663,12.8104416 10.7011266,13.6465868 9.24423352,14.0378195 L9.24423352,16.8068954 C9.24423352,17.8476414 8.37775061,18.6943139 7.31269967,18.6943139 L7.31269967,18.6943139 Z" id="Fill-3" fill="#263238" mask="url(#mask-4)"></path>
                        </g>
                        <path d="M7.31269967,17.2161424 C7.05111554,17.2161424 6.83903411,17.0089551 6.83903411,16.7533516 L6.83903411,14.069129 C6.83903411,13.8135255 7.05111554,13.6063383 7.31269967,13.6063383 C7.57428379,13.6063383 7.78631879,13.8135255 7.78631879,14.069129 L7.78631879,16.7533516 C7.78631879,17.0089551 7.57428379,17.2161424 7.31269967,17.2161424" id="Fill-5" fill="#263238"></path>
                        <path d="M7.31269967,13.282353 C7.05111554,13.282353 6.83903411,13.0751657 6.83903411,12.8195622 L6.83903411,12.4030551 C6.83903411,12.1474516 7.05111554,11.940219 7.31269967,11.940219 C7.57428379,11.940219 7.78631879,12.1474516 7.78631879,12.4030551 L7.78631879,12.8195622 C7.78631879,13.0751657 7.57428379,13.282353 7.31269967,13.282353" id="Fill-6" fill="#263238"></path>
                    </g>
                </g>
            </g>
        </g>
    </g>
</svg>