<?xml version="1.0" encoding="UTF-8"?>
<svg width="22px" height="22px" viewBox="0 0 22 22" version="1.1" xmlns="http://www.w3.org/2000/svg" xmlns:xlink="http://www.w3.org/1999/xlink">
    <!-- Generator: Sketch 41.2 (35397) - http://www.bohemiancoding.com/sketch -->
    <title>magnifying-glass (1)</title>
    <desc>Created with Sketch.</desc>
    <defs></defs>
    <g id="Page-1" stroke="none" stroke-width="1" fill="none" fill-rule="evenodd">
        <g id="my-quizes" transform="translate(-1501.000000, -197.000000)" fill="#AAB9C1">
            <g id="tab-bar" transform="translate(375.000000, 178.000000)">
                <path d="M1147.80971,39.8824413 L1142.46222,34.5350048 C1143.89661,32.8859288 1144.76503,30.7341221 1144.76503,28.3825162 C1144.76503,23.2058483 1140.55443,19 1135.38252,19 C1130.20585,19 1126,23.2106054 1126,28.3825162 C1126,33.554427 1130.21061,37.7650324 1135.38252,37.7650324 C1137.73412,37.7650324 1139.88593,36.8966129 1141.535,35.4622174 L1146.88244,40.809715 C1147.00942,40.9364497 1147.18025,41.0048181 1147.34608,41.0048181 C1147.51191,41.0048181 1147.68274,40.9414508 1147.80971,40.809715 C1148.06343,40.5559406 1148.06343,40.1362157 1147.80971,39.8824413 Z M1127.31248,28.3825162 C1127.31248,23.9327127 1130.93271,20.3174799 1135.37776,20.3174799 C1139.82732,20.3174799 1143.4428,23.9377138 1143.4428,28.3825162 C1143.4428,32.8273185 1139.82732,36.4525535 1135.37776,36.4525535 C1130.93271,36.4525535 1127.31248,32.8323196 1127.31248,28.3825162 Z" id="magnifying-glass-(1)"></path>
            </g>
        </g>
    </g>
</svg>