<?xml version="1.0" encoding="UTF-8"?>
<svg width="33px" height="33px" viewBox="0 0 33 33" version="1.1" xmlns="http://www.w3.org/2000/svg" xmlns:xlink="http://www.w3.org/1999/xlink">
    <!-- Generator: Sketch 41.2 (35397) - http://www.bohemiancoding.com/sketch -->
    <title>chart</title>
    <desc>Created with Sketch.</desc>
    <defs>
        <polygon id="path-1" points="16.2302225 0.0172622061 0.00825492909 0.0172622061 0.00825492909 32.3325231 32.45219 32.3325231 32.45219 0.0172622061"></polygon>
    </defs>
    <g id="Page-1" stroke="none" stroke-width="1" fill="none" fill-rule="evenodd">
        <g id="my-quizes" transform="translate(-578.000000, -601.000000)">
            <g id="2" transform="translate(375.000000, 527.000000)">
                <g id="chart" transform="translate(200.000000, 71.000000)">
                    <g id="Group-3" transform="translate(19.204339, 19.269004) rotate(173.000000) translate(-19.204339, -19.269004) translate(2.704339, 2.769004)">
                        <mask id="mask-2" fill="white">
                            <use xlink:href="#path-1"></use>
                        </mask>
                        <g id="Clip-2"></g>
                        <path d="M16.2261638,0.0172622061 C7.27892131,0.0172622061 -1.98951966e-13,7.26560777 -1.98951966e-13,16.1749612 C-1.98951966e-13,25.0843146 7.27892131,32.3325231 16.2261638,32.3325231 C20.4400299,32.3325231 24.4332143,30.731385 27.4702027,27.8237993 C27.7329846,27.5722643 27.7416523,27.1559163 27.4885011,26.8942432 C27.2359003,26.6325701 26.8177881,26.6239389 26.5550062,26.875474 C23.7651154,29.5464578 20.0971752,31.0171704 16.2261638,31.0171704 C8.00714364,31.0171704 1.32106382,24.3591649 1.32106382,16.1749612 C1.32106382,7.99075743 8.00714364,1.33275192 16.2261638,1.33275192 C24.444496,1.33275192 31.1311262,7.99075743 31.1311262,16.1749612 C31.1311262,18.0207842 30.7952881,19.8215337 30.1326925,21.5270671 C30.0014391,21.8658721 30.1702524,22.2468737 30.5104931,22.3779842 C30.8505962,22.5085468 31.2333497,22.3405828 31.3650158,22.0017777 C32.0862215,20.1443096 32.45219,18.1834051 32.45219,16.1749612 C32.45219,7.26560777 25.1732687,0.0172622061 16.2261638,0.0172622061 Z" id="Fill-1" fill="#263238" mask="url(#mask-2)"></path>
                    </g>
                    <g id="stats" transform="translate(10.816327, 12.326531)" fill="#263238">
                        <path d="M13.4030612,14.819528 L17.9336735,14.819528 L17.9336735,7.99477505 L13.4030612,7.99477505 L13.4030612,14.819528 Z M14.5196268,13.675596 L16.811874,13.675596 L16.811874,9.14406891 L14.5196268,9.14406891 L14.5196268,13.675596 Z" id="Fill-4"></path>
                        <path d="M6.32397959,14.819528 L10.8545918,14.819528 L10.8545918,4.84365175 L6.32397959,4.84365175 L6.32397959,14.819528 Z M7.38163018,13.675596 L9.67381037,13.675596 L9.67381037,5.99294561 L7.38163018,5.99294561 L7.38163018,13.675596 Z" id="Fill-5"></path>
                        <path d="M0.0595241312,14.819528 L4.59013638,14.819528 L4.59013638,0.0263651175 L0.0595241312,0.0263651175 L0.0595241312,14.819528 Z M1.17607407,13.675596 L3.46808453,13.675596 L3.46808453,1.17565898 L1.17607407,1.17565898 L1.17607407,13.675596 Z" id="Fill-6"></path>
                        <path d="M1.88652536,12.3548479 C1.62996566,12.3548479 1.42195782,12.1516403 1.42195782,11.9009463 L1.42195782,9.26828138 C1.42195782,9.01758742 1.62996566,8.81437978 1.88652536,8.81437978 C2.14308507,8.81437978 2.35104736,9.01758742 2.35104736,9.26828138 L2.35104736,11.9009463 C2.35104736,12.1516403 2.14308507,12.3548479 1.88652536,12.3548479" id="Fill-5"></path>
                        <path d="M1.88652536,8.4966175 C1.62996566,8.4966175 1.42195782,8.29340986 1.42195782,8.04271589 L1.42195782,7.6342089 C1.42195782,7.38351494 1.62996566,7.18026279 1.88652536,7.18026279 C2.14308507,7.18026279 2.35104736,7.38351494 2.35104736,7.6342089 L2.35104736,8.04271589 C2.35104736,8.29340986 2.14308507,8.4966175 1.88652536,8.4966175" id="Fill-6"></path>
                    </g>
                </g>
            </g>
        </g>
    </g>
</svg>