<?xml version="1.0" encoding="UTF-8"?>
<svg width="43px" height="43px" viewBox="0 0 43 43" version="1.1" xmlns="http://www.w3.org/2000/svg" xmlns:xlink="http://www.w3.org/1999/xlink">
    <!-- Generator: Sketch 41.2 (35397) - http://www.bohemiancoding.com/sketch -->
    <title>chart</title>
    <desc>Created with Sketch.</desc>
    <defs>
        <polygon id="path-1" points="21.4940784 0.0228607595 0.0109322034 0.0228607595 0.0109322034 42.8187468 42.9772246 42.8187468 42.9772246 0.0228607595"></polygon>
    </defs>
    <g id="Page-1" stroke="none" stroke-width="1" fill="none" fill-rule="evenodd">
        <g id="start-quiz" transform="translate(-1089.000000, -194.000000)">
            <g id="create-surway" transform="translate(975.000000, 164.000000)">
                <g id="chart" transform="translate(111.000000, 27.000000)">
                    <g id="Group-3" transform="translate(24.500000, 24.500000) rotate(173.000000) translate(-24.500000, -24.500000) translate(3.000000, 3.000000)">
                        <mask id="mask-2" fill="white">
                            <use xlink:href="#path-1"></use>
                        </mask>
                        <g id="Clip-2"></g>
                        <path d="M21.4887034,0.0228607595 C9.63965254,0.0228607595 0,9.6220211 0,21.4208945 C0,33.2197679 9.63965254,42.8187468 21.4887034,42.8187468 C27.0692288,42.8187468 32.3575,40.6983207 36.3794576,36.8477342 C36.7274661,36.5146203 36.7389449,35.9632405 36.4036907,35.6167004 C36.0691653,35.2701603 35.5154492,35.25873 35.1674407,35.5918439 C31.4727203,39.1290928 26.615178,41.0767932 21.4887034,41.0767932 C10.6040551,41.0767932 1.74951695,32.2594346 1.74951695,21.4208945 C1.74951695,10.5823544 10.6040551,1.76499578 21.4887034,1.76499578 C32.3724407,1.76499578 41.2277076,10.5823544 41.2277076,21.4208945 C41.2277076,23.8653629 40.7829492,26.2501392 39.9054576,28.5088186 C39.7316356,28.9575063 39.9551992,29.4620759 40.4057881,29.6357089 C40.8561949,29.808616 41.3630847,29.5861772 41.5374534,29.1374895 C42.4925636,26.6775992 42.9772246,24.0807257 42.9772246,21.4208945 C42.9772246,9.6220211 33.337572,0.0228607595 21.4887034,0.0228607595 Z" id="Fill-1" fill="#63ADF2" mask="url(#mask-2)"></path>
                    </g>
                    <g id="stats" transform="translate(13.000000, 15.000000)" fill="#63ADF2">
                        <path d="M17.75,19.6258613 L23.75,19.6258613 L23.75,10.5876751 L17.75,10.5876751 L17.75,19.6258613 Z M19.2286949,18.1109244 L22.2643737,18.1109244 L22.2643737,12.1097129 L19.2286949,12.1097129 L19.2286949,18.1109244 Z" id="Fill-4"></path>
                        <path d="M8.375,19.6258613 L14.375,19.6258613 L14.375,6.41456583 L8.375,6.41456583 L8.375,19.6258613 Z M9.7756724,18.1109244 L12.8112624,18.1109244 L12.8112624,7.93660364 L9.7756724,7.93660364 L9.7756724,18.1109244 Z" id="Fill-5"></path>
                        <path d="M0.0788292548,19.6258613 L6.07882925,19.6258613 L6.07882925,0.0349159664 L0.0788292548,0.0349159664 L0.0788292548,19.6258613 Z M1.5575035,18.1109244 L4.59286871,18.1109244 L4.59286871,1.55695378 L1.5575035,1.55695378 L1.5575035,18.1109244 Z" id="Fill-6"></path>
                        <path d="M2.49837143,16.3618256 C2.15860317,16.3618256 1.88313333,16.0927128 1.88313333,15.7607127 L1.88313333,12.2742105 C1.88313333,11.9422104 2.15860317,11.6730975 2.49837143,11.6730975 C2.83813968,11.6730975 3.11354921,11.9422104 3.11354921,12.2742105 L3.11354921,15.7607127 C3.11354921,16.0927128 2.83813968,16.3618256 2.49837143,16.3618256" id="Fill-5"></path>
                        <path d="M2.49837143,11.2522772 C2.15860317,11.2522772 1.88313333,10.9831644 1.88313333,10.6511643 L1.88313333,10.1101685 C1.88313333,9.77816843 2.15860317,9.50899667 2.49837143,9.50899667 C2.83813968,9.50899667 3.11354921,9.77816843 3.11354921,10.1101685 L3.11354921,10.6511643 C3.11354921,10.9831644 2.83813968,11.2522772 2.49837143,11.2522772" id="Fill-6"></path>
                    </g>
                </g>
            </g>
        </g>
    </g>
</svg>