<?xml version="1.0" encoding="UTF-8"?>
<svg width="22px" height="30px" viewBox="0 0 22 30" version="1.1" xmlns="http://www.w3.org/2000/svg" xmlns:xlink="http://www.w3.org/1999/xlink">
    <!-- Generator: Sketch 41.2 (35397) - http://www.bohemiancoding.com/sketch -->
    <title>unlock</title>
    <desc>Created with Sketch.</desc>
    <defs></defs>
    <g id="Page-1" stroke="none" stroke-width="1" fill="none" fill-rule="evenodd">
        <g id="my-quizes" transform="translate(-425.000000, -435.000000)" fill="#AAB9C1">
            <g id="1" transform="translate(375.000000, 259.000000)">
                <g id="private" transform="translate(34.000000, 164.000000)">
                    <g id="lock">
                        <g id="unlock" transform="translate(16.200000, 12.150000)">
                            <path d="M11.6261699,19.7633882 C11.3495288,20.0240616 11.1908779,20.3884113 11.1908779,20.7630829 L11.1908779,23.3955933 C11.1908779,23.7209361 10.9262696,23.9855444 10.6009268,23.9855444 C10.2756411,23.9855444 10.0109758,23.7209361 10.0109758,23.3955933 L10.0109758,20.7630829 C10.0109758,20.3884683 9.85232488,20.0241757 9.57585484,19.7636164 C9.27326613,19.478307 9.10663134,19.0918877 9.10663134,18.6755858 C9.10663134,17.8517074 9.77699136,17.1813474 10.6008698,17.1813474 C11.4247483,17.1813474 12.0951083,17.8517074 12.0951083,18.6755858 C12.0951653,19.0918877 11.9285305,19.47825 11.6261699,19.7633882 Z M10.6009268,15.7780109 C9.00318318,15.7780109 7.70335196,17.0778422 7.70335196,18.6755858 C7.70335196,19.467985 8.03274366,20.2342085 8.60775346,20.7793929 L8.60775346,23.3955363 C8.60775346,24.4945732 9.501947,25.3887667 10.6009839,25.3887667 C11.7000778,25.3887667 12.5942713,24.4945732 12.5942713,23.3955363 L12.5942713,20.7793929 C13.168996,20.2344937 13.4985588,19.4680991 13.4985588,18.6755858 C13.4985017,17.0778422 12.1986135,15.7780109 10.6009268,15.7780109 L10.6009268,15.7780109 Z" id="Fill-1"></path>
                            <path d="M19.7984603,27.0932091 C19.7984603,27.4800847 19.4837247,27.7948203 19.0967921,27.7948203 L2.10494758,27.7948203 C1.718072,27.7948203 1.40333641,27.4800847 1.40333641,27.0932091 L1.40333641,14.0737396 C1.40333641,13.686807 1.718072,13.3720714 2.10494758,13.3720714 L19.0967921,13.3720714 C19.4837247,13.3720714 19.7984603,13.686807 19.7984603,14.0737396 L19.7984603,27.0932091 Z M5.61306048,6.39120276 C5.61306048,3.64087327 7.85054032,1.40333641 10.6009268,1.40333641 C13.3511993,1.40333641 15.5887362,3.64087327 15.5887362,6.39120276 L15.5887362,11.968735 L5.61306048,11.968735 L5.61306048,6.39120276 Z M19.0967921,11.968735 L16.9920726,11.968735 L16.9920726,6.39120276 C16.9920726,2.86706509 14.1249505,0 10.6009268,0 C7.0768462,0 4.20978111,2.86706509 4.20978111,6.39120276 L4.20978111,11.968735 L2.10494758,11.968735 C0.944320853,11.968735 0,12.9130559 0,14.0737396 L0,27.0932091 C0,28.2538358 0.944320853,29.1981567 2.10494758,29.1981567 L19.0967921,29.1981567 C20.2574758,29.1981567 21.2017967,28.2538358 21.2017967,27.0932091 L21.2017967,14.0737396 C21.2017967,12.9130559 20.2574758,11.968735 19.0967921,11.968735 L19.0967921,11.968735 Z" id="Fill-2"></path>
                        </g>
                    </g>
                </g>
            </g>
        </g>
    </g>
</svg>